<?xml version="1.0" encoding="UTF-8"?>
<svg width="164px" height="30px" viewBox="0 0 164 30" version="1.1" xmlns="http://www.w3.org/2000/svg" xmlns:xlink="http://www.w3.org/1999/xlink">
    <title>useminji</title>
    <g id="Page-1" stroke="none" stroke-width="1" fill="none" fill-rule="evenodd">
        <g id="MacBook-Pro-13&quot;" transform="translate(-638, -33)" fill-rule="nonzero">
            <g id="Top-Menu" transform="translate(0, 24)">
                <g id="useminji" transform="translate(638, 9)">
                    <path d="M9.38274616,25.4251274 C6.0767849,25.4251274 3.68650356,24.6272437 2.21190214,23.0314764 C0.737300712,21.435709 0,19.0896929 0,15.9934279 C0,14.6358348 0.0475677879,13.4151918 0.142703364,12.3314991 C0.237838939,11.2478064 0.428110091,10.3129725 0.713516818,9.52699755 C1.02270744,8.69338775 1.51027727,8.06222604 2.1762263,7.63351243 C2.84217533,7.20479882 3.75785524,6.99044201 4.92326605,6.99044201 C6.11246075,6.99044201 7.03408664,7.2881598 7.68814372,7.88359537 C8.3422008,8.47903095 8.66922934,9.50318013 8.66922934,10.9560429 C8.66922934,11.8372876 8.66328337,12.664943 8.65139142,13.4390093 C8.63949948,14.2130755 8.6335535,14.9930961 8.6335535,15.7790711 C8.6335535,16.112515 8.70490519,16.3506892 8.84760855,16.4935938 C8.99031191,16.6364983 9.18058306,16.7079506 9.418422,16.7079506 C9.60869316,16.7079506 9.77518041,16.6364983 9.91788378,16.4935938 C10.0605871,16.3506892 10.1438308,16.112515 10.1676147,15.7790711 C10.1438308,14.9930961 10.1200469,14.2130755 10.096263,13.4390093 C10.0724791,12.664943 10.0724791,11.8372876 10.096263,10.9560429 C10.0724791,9.50318013 10.3876157,8.47903095 11.0416728,7.88359537 C11.6957298,7.2881598 12.6411396,6.99044201 13.8779021,6.99044201 C14.8530418,6.99044201 15.6319643,7.20479882 16.2146697,7.63351243 C16.7973751,8.06222604 17.2433231,8.69338775 17.5525137,9.52699755 C17.8617044,10.2891551 18.0519755,11.2180346 18.1233272,12.313636 C18.1946789,13.4092375 18.2422467,14.6358348 18.2660306,15.9934279 C18.2422467,19.0896929 17.5346758,21.435709 16.143318,23.0314764 C14.7519602,24.6272437 12.4984363,25.4251274 9.38274616,25.4251274 Z" id="Path" fill="#000000"></path>
                    <path d="M23.4033516,25.4251274 C21.5957757,25.4251274 20.3173914,25.1155009 19.5681987,24.4962479 C18.8190061,23.8769949 18.4444098,23.0314764 18.4444098,21.9596923 C18.4444098,21.2451696 18.610897,20.6914145 18.9438715,20.2984271 C19.276846,19.9054396 19.6871182,19.6196305 20.174688,19.4409998 C20.6622579,19.2623692 21.1319898,19.1373277 21.5838838,19.0658754 C22.1071294,18.9944232 22.5471315,18.9229709 22.9038899,18.8515186 C23.2606483,18.7800664 23.4390275,18.6133444 23.4390275,18.3513527 C23.4390275,18.1369959 23.2903782,17.9524109 22.9930795,17.7975977 C22.6957808,17.6427844 22.3271304,17.4641537 21.8871284,17.2617056 C21.4471264,17.0592576 21.0071243,16.7794028 20.5671223,16.4221415 C20.1271203,16.0648801 19.7584699,15.5825773 19.4611712,14.975233 C19.1638725,14.3678888 19.0152232,13.5640507 19.0152232,12.563719 C19.0152232,11.325213 19.4314414,10.2832007 20.2638776,9.43768222 C21.0963139,8.5921637 22.1665892,7.94909329 23.4747033,7.50847096 C24.7828175,7.06784864 26.1622833,6.84753747 27.6131009,6.84753747 C29.4444607,6.84753747 30.722845,7.16311833 31.4482538,7.79428004 C32.1736625,8.42544174 32.5363669,9.2650059 32.5363669,10.3129725 C32.5363669,10.9798604 32.3996095,11.509798 32.1260948,11.9027855 C31.85258,12.295773 31.5136595,12.5756277 31.1093333,12.7423496 C30.7050071,12.9090716 30.3006809,13.0281587 29.8963547,13.099611 C29.5158124,13.1472458 29.1947298,13.2186981 28.933107,13.3139678 C28.6714842,13.4092375 28.5406727,13.5878682 28.5406727,13.8498598 C28.5406727,14.0642166 28.6952681,14.2428473 29.0044587,14.3857518 C29.3136493,14.5286564 29.7001376,14.6834696 30.1639235,14.8501916 C30.6277094,15.0169135 31.0914954,15.2610421 31.5552813,15.5825773 C32.0190672,15.9041125 32.4055555,16.3566436 32.7147461,16.9401704 C33.0239367,17.5236973 33.1785321,18.3037179 33.1785321,19.2802322 C33.1785321,20.3043814 32.9050173,21.1975348 32.3579877,21.9596923 C31.8109582,22.7218499 31.0736574,23.3589659 30.1460856,23.8710405 C29.2185137,24.3831151 28.1720224,24.7701482 27.0066116,25.0321399 C25.8412008,25.2941315 24.6401141,25.4251274 23.4033516,25.4251274 Z" id="Path" fill="#000000"></path>
                    <path d="M43.4531742,25.4251274 C41.5742466,25.4251274 39.9985636,25.1333639 38.7261253,24.5498371 C37.453687,23.9663102 36.4309796,23.2041527 35.658003,22.2633645 C34.8850265,21.3225763 34.3261049,20.3103358 33.9812385,19.226643 C33.636372,18.1429503 33.4639388,17.1128468 33.4639388,16.1363324 C33.4639388,15.1598181 33.6185341,14.1356689 33.9277247,13.0638849 C34.2369153,11.9921008 34.7363771,10.9858147 35.42611,10.0450265 C36.115843,9.1042383 37.0374689,8.33612641 38.1909877,7.74069083 C39.3445066,7.14525526 40.7537023,6.84753747 42.4185749,6.84753747 C44.1547991,6.84753747 45.5996707,7.13334655 46.7531895,7.7049647 C47.9067084,8.27658285 48.7748205,9.08042087 49.3575259,10.1164788 C49.9402313,11.1525367 50.231584,12.3612709 50.231584,13.7426814 C50.231584,15.0288222 49.9759072,15.92793 49.4645534,16.4400046 C48.9531997,16.9520791 48.1386014,17.2081164 47.0207583,17.2081164 C46.2121059,17.2081164 45.3142639,17.2021621 44.3272323,17.1902534 C43.3402007,17.1783447 42.5256024,17.1723903 41.8834372,17.1723903 C41.5980305,17.1723903 41.4077594,17.2200252 41.3126238,17.3152948 C41.2174882,17.4105645 41.1699204,17.5534691 41.1699204,17.7440085 C41.1699204,17.8154607 41.1996503,17.8928674 41.25911,17.9762283 C41.3185698,18.0595893 41.4196513,18.1369959 41.5623547,18.2084482 C41.705058,18.2799005 41.8893832,18.339444 42.1153302,18.3870789 C42.3412772,18.4347137 42.620738,18.4585311 42.9537125,18.4585311 C43.3104709,18.4585311 43.738581,18.4347137 44.2380427,18.3870789 C44.7375045,18.339444 45.2726421,18.2977635 45.8434556,18.2620374 C46.414269,18.2263113 46.9969744,18.2084482 47.5915718,18.2084482 C48.447792,18.2084482 49.1375249,18.4585311 49.6607706,18.958697 C50.1840162,19.4588629 50.4456391,20.1495682 50.4456391,21.0308128 C50.4456391,22.3169537 49.9164474,23.3708746 48.8580641,24.1925757 C47.7996809,25.0142768 45.9980509,25.4251274 43.4531742,25.4251274 Z M42.7396574,13.9927644 C43.0964158,13.9927644 43.3699306,13.9689469 43.5602018,13.9213121 C43.7504729,13.8736772 43.8872303,13.7962706 43.9704739,13.6890922 C44.0537176,13.5819138 44.0953394,13.4568723 44.0953394,13.3139678 C44.0953394,12.9805239 43.9764199,12.6887604 43.738581,12.4386775 C43.500742,12.1885946 43.1083078,12.0635531 42.5612782,12.0635531 C42.2520876,12.0635531 41.9964107,12.129051 41.7942476,12.2600468 C41.5920845,12.3910427 41.4374892,12.5518103 41.3304617,12.7423496 C41.2234342,12.932889 41.1699204,13.1353371 41.1699204,13.3496939 C41.1699204,13.5164159 41.2115422,13.6474117 41.2947859,13.7426814 C41.3780295,13.8379511 41.5326248,13.903449 41.7585718,13.9391751 C41.9845188,13.9749013 42.3115473,13.9927644 42.7396574,13.9927644 Z" id="Shape" fill="#000000"></path>
                    <path d="M56.296477,25.2822228 C55.1310662,25.2822228 54.2391702,25.0797747 53.6207889,24.6748785 C53.0024077,24.2699823 52.5267298,23.7340903 52.1937553,23.0672025 C51.7894291,22.2335927 51.4921304,21.2273066 51.3018592,20.0483441 C51.1115881,18.8693817 51.0164525,17.5534691 51.0164525,16.1006063 C51.0164525,14.4095693 51.0818582,13.0757936 51.2126696,12.0992792 C51.3434811,11.1227649 51.5278062,10.3367899 51.7656452,9.74135436 C52.1699714,8.7410226 52.6813251,8.03245427 53.2997063,7.61564936 C53.9180876,7.19884446 54.6316044,6.99044201 55.4402568,6.99044201 C56.1775575,6.99044201 56.7840468,7.09166606 57.2597247,7.29411415 C57.7354026,7.49656225 58.1278368,7.83596053 58.4370274,8.31230898 C58.7700019,8.76484002 59.0791926,8.99110554 59.3645993,8.99110554 C59.5548704,8.99110554 59.8640611,8.76484002 60.2921712,8.31230898 C60.7440651,7.83596053 61.2732568,7.48465354 61.8797461,7.25838802 C62.4862354,7.0321225 63.2651579,6.91898974 64.2165137,6.91898974 C65.0251661,6.91898974 65.6970611,7.02616815 66.2321987,7.24052495 C66.7673363,7.45488176 67.2132843,7.8121431 67.5700427,8.31230898 C67.7603139,8.55048321 67.9208551,8.72315953 68.0516666,8.83033793 C68.182478,8.93751634 68.3311273,8.99110554 68.4976146,8.99110554 C68.6878857,8.99110554 68.9970763,8.76484002 69.4251864,8.31230898 C69.8532965,7.78832568 70.3765422,7.42510998 70.9949234,7.22266189 C71.6133047,7.02021379 72.3981732,6.91898974 73.3495289,6.91898974 C74.7527787,6.91898974 75.8527838,7.31197722 76.6495442,8.09795218 C77.4463047,8.88392713 78.0171181,9.92593939 78.3619846,11.2239889 C78.7068511,12.5220385 78.8792843,13.9451295 78.8792843,15.493262 C78.8792843,17.0175771 78.8257705,18.4466224 78.718743,19.7803981 C78.6117155,21.1141738 78.3560386,22.1978665 77.9517124,23.0314764 C77.6187379,23.6983642 77.1846818,24.2402106 76.6495442,24.6570155 C76.1144066,25.0738204 75.2522405,25.2822228 74.0630458,25.2822228 C72.7311477,25.2822228 71.773846,24.9249615 71.1911406,24.2104388 C70.6084352,23.4959161 70.3170825,22.6861237 70.3170825,21.7810616 C70.3170825,21.0903564 70.3468123,20.2269748 70.4062721,19.1909169 C70.4657318,18.154859 70.4954617,17.2319339 70.4954617,16.4221415 C70.4954617,15.945793 70.4360019,15.576623 70.3170825,15.3146313 C70.198163,15.0526397 70.0197838,14.9216438 69.7819448,14.9216438 C69.6630254,14.9216438 69.5559979,14.95737 69.4608623,15.0288222 C69.3657267,15.1002745 69.288429,15.2014986 69.2289693,15.3324944 C69.1695096,15.4634902 69.1219418,15.6242578 69.086266,15.8147972 C69.0505901,16.0053366 69.0327522,16.2077847 69.0327522,16.4221415 C69.0327522,17.0652119 69.0505901,17.6785105 69.086266,18.2620374 C69.1219418,18.8455643 69.1576176,19.4231368 69.1932935,19.9947549 C69.2289693,20.5663731 69.2468072,21.1618087 69.2468072,21.7810616 C69.2468072,23.0195676 68.854373,23.912721 68.0695045,24.4605217 C67.284636,25.0083225 66.3451722,25.2822228 65.2511131,25.2822228 C63.7289438,25.2822228 62.6705606,24.9249615 62.0759632,24.2104388 C61.4813659,23.4959161 61.1840672,22.6861237 61.1840672,21.7810616 C61.1840672,21.0903564 61.2137971,20.2269748 61.2732568,19.1909169 C61.3327165,18.154859 61.3624464,17.2319339 61.3624464,16.4221415 C61.3624464,15.945793 61.3029867,15.576623 61.1840672,15.3146313 C61.0651477,15.0526397 60.8867685,14.9216438 60.6489296,14.9216438 C60.5300101,14.9216438 60.4229826,14.95737 60.327847,15.0288222 C60.2327114,15.1002745 60.1554138,15.2014986 60.095954,15.3324944 C60.0364943,15.4634902 59.9889265,15.6183035 59.9532507,15.7969341 C59.9175748,15.9755648 59.8997369,16.1839673 59.8997369,16.4221415 C59.8997369,17.3748384 59.9354128,18.2739461 60.0067644,19.1194646 C60.0781161,19.9649831 60.113792,20.8521822 60.113792,21.7810616 C60.113792,23.0195676 59.7273037,23.912721 58.9543271,24.4605217 C58.1813506,25.0083225 57.2954005,25.2822228 56.296477,25.2822228 Z" id="Path" fill="#000000"></path>
                    <path d="M84.1236329,25.2822228 C83.1722771,25.2822228 82.4111925,25.1274096 81.8403791,24.8177831 C81.2695656,24.5081566 80.8176716,24.0318081 80.4846971,23.3887377 C80.2468582,22.8647544 80.062533,22.2514557 79.9317216,21.5488418 C79.8009102,20.8462278 79.7117206,20.0364354 79.6641528,19.1194646 C79.616585,18.2024939 79.5928011,17.184299 79.5928011,16.0648801 C79.5928011,15.0169135 79.610639,14.0523079 79.6463149,13.1710633 C79.6819907,12.2898186 79.7652343,11.4919349 79.8960458,10.7774123 C80.0268572,10.0628896 80.2230743,9.45554528 80.4846971,8.9553794 C80.8176716,8.31230898 81.2755116,7.82405181 81.858217,7.49060789 C82.4409224,7.15716397 83.196061,6.99044201 84.1236329,6.99044201 C85.8836411,6.99044201 87.0847277,7.64542114 87.7268928,8.9553794 C87.9885157,9.45554528 88.1847328,10.0628896 88.3155442,10.7774123 C88.4463556,11.4919349 88.5295993,12.2898186 88.5652751,13.1710633 C88.6009509,14.0523079 88.6187889,15.0169135 88.6187889,16.0648801 C88.6187889,17.184299 88.595005,18.2084482 88.5474372,19.1373277 C88.4998694,20.0662072 88.4166258,20.8879083 88.2977063,21.602431 C88.1787868,22.3169537 87.9885157,22.9362067 87.7268928,23.46019 C87.1322955,24.6748785 85.9312088,25.2822228 84.1236329,25.2822228 Z M84.1236329,6.13301479 C83.1009255,6.13301479 82.304165,5.90079491 81.7333516,5.43635517 C81.1625381,4.97191542 80.8771314,4.33479936 80.8771314,3.52500698 C80.8771314,2.69139717 81.1625381,2.0423724 81.7333516,1.57793265 C82.304165,1.11349291 83.1009255,0.881273033 84.1236329,0.881273033 C85.1463403,0.881273033 85.9431008,1.11349291 86.5139142,1.57793265 C87.0847277,2.0423724 87.3701344,2.69139717 87.3701344,3.52500698 C87.3701344,4.33479936 87.0847277,4.97191542 86.5139142,5.43635517 C85.9431008,5.90079491 85.1463403,6.13301479 84.1236329,6.13301479 Z" id="Shape" fill="#000000"></path>
                    <path d="M94.5766543,25.2822228 C93.4112435,25.2822228 92.5252934,25.0797747 91.9188041,24.6748785 C91.3123148,24.2699823 90.8425829,23.7221816 90.5096084,23.0314764 C90.1052822,22.1978665 89.8079836,21.1975348 89.6177124,20.0304811 C89.4274413,18.8634273 89.3323057,17.5534691 89.3323057,16.1006063 C89.3323057,14.1237602 89.4214953,12.6351712 89.5998745,11.6348395 C89.7782537,10.6345077 90.0220386,9.83662405 90.3312292,9.24118848 C90.7355554,8.4313961 91.2171793,7.85382359 91.7761008,7.50847096 C92.3350223,7.16311833 92.9831334,6.99044201 93.7204341,6.99044201 C94.4577348,6.99044201 95.0642241,7.09166606 95.539902,7.29411415 C96.0155799,7.49656225 96.4080141,7.83596053 96.7172047,8.31230898 C97.0739632,8.76484002 97.3831538,8.99110554 97.6447766,8.99110554 C97.8826155,8.99110554 98.1918062,8.76484002 98.5723485,8.31230898 C99.0480264,7.76450826 99.5891099,7.38342949 100.195599,7.16907268 C100.802089,6.95471588 101.569119,6.84753747 102.496691,6.84753747 C103.899941,6.84753747 105.005892,7.24052495 105.814544,8.02649991 C106.623197,8.81247487 107.199956,9.86044147 107.544822,11.1703997 C107.889689,12.480358 108.062122,13.9213121 108.062122,15.493262 C108.062122,17.0175771 108.002662,18.4466224 107.883743,19.7803981 C107.764823,21.1141738 107.503201,22.1978665 107.098874,23.0314764 C106.789684,23.7221816 106.361574,24.2699823 105.814544,24.6748785 C105.267515,25.0797747 104.399402,25.2822228 103.210208,25.2822228 C101.87831,25.2822228 100.926954,24.9249615 100.356141,24.2104388 C99.7853271,23.4959161 99.4999203,22.6861237 99.4999203,21.7810616 C99.4999203,21.0903564 99.5296502,20.2269748 99.5891099,19.1909169 C99.6485697,18.154859 99.6782995,17.2319339 99.6782995,16.4221415 C99.6782995,15.945793 99.6128938,15.576623 99.4820824,15.3146313 C99.351271,15.0526397 99.1669458,14.9216438 98.9291069,14.9216438 C98.8101874,14.9216438 98.7031599,14.95737 98.6080243,15.0288222 C98.5128887,15.1002745 98.4355911,15.2014986 98.3761313,15.3324944 C98.3166716,15.4634902 98.2691038,15.6183035 98.233428,15.7969341 C98.1977521,15.9755648 98.1799142,16.1839673 98.1799142,16.4221415 C98.1799142,17.3748384 98.221536,18.2739461 98.3047797,19.1194646 C98.3880233,19.9649831 98.4296451,20.8521822 98.4296451,21.7810616 C98.4296451,23.0195676 98.0372109,23.912721 97.2523424,24.4605217 C96.4674739,25.0083225 95.5755778,25.2822228 94.5766543,25.2822228 Z" id="Path" fill="#000000"></path>
                    <path d="M111.272948,29.9980726 C110.107537,29.9980726 109.257263,29.6944004 108.722125,29.0870561 C108.186988,28.4797118 107.919419,27.7473261 107.919419,26.8898989 C107.919419,26.1277413 107.972933,25.4846709 108.07996,24.9606876 C108.186988,24.4367043 108.311853,23.9544015 108.454556,23.5137792 C108.59726,23.0731568 108.722125,22.6146714 108.829153,22.138323 C108.93618,21.6619745 108.989694,21.0903564 108.989694,20.4234685 C108.989694,19.5898587 108.989694,18.6192988 108.989694,17.5117886 C108.989694,16.4042784 108.989694,15.2669965 108.989694,14.0999428 C108.989694,13.1710633 109.037262,12.3374535 109.132397,11.5991133 C109.227533,10.8607732 109.358344,10.2177028 109.524832,9.66990209 C109.810238,8.78865744 110.262132,8.1217696 110.880514,7.66923857 C111.498895,7.21670753 112.355115,6.99044201 113.449174,6.99044201 C114.567017,6.99044201 115.429183,7.30602287 116.035673,7.93718457 C116.642162,8.56834628 117.08811,9.50318013 117.373517,10.7416861 C117.540004,11.4323914 117.664869,12.2302751 117.748113,13.1353371 C117.831357,14.0403992 117.88487,15.0288222 117.908654,16.1006063 C117.932438,17.1723903 117.94433,18.3275353 117.94433,19.5660413 C117.94433,21.9477836 117.676761,23.912721 117.141624,25.4608535 C116.606486,27.008986 115.845401,28.1522223 114.85837,28.8905624 C113.871338,29.6289025 112.676198,29.9980726 111.272948,29.9980726 Z M113.377822,6.13301479 C112.355115,6.13301479 111.558355,5.90079491 110.987541,5.43635517 C110.416728,4.97191542 110.131321,4.33479936 110.131321,3.52500698 C110.131321,2.69139717 110.416728,2.0423724 110.987541,1.57793265 C111.558355,1.11349291 112.355115,0.881273033 113.377822,0.881273033 C114.40053,0.881273033 115.19729,1.11349291 115.768104,1.57793265 C116.338917,2.0423724 116.624324,2.69139717 116.624324,3.52500698 C116.624324,4.33479936 116.338917,4.97191542 115.768104,5.43635517 C115.19729,5.90079491 114.40053,6.13301479 113.377822,6.13301479 Z" id="Shape" fill="#000000"></path>
                    <path d="M123.188679,25.2822228 C122.237323,25.2822228 121.476238,25.1274096 120.905425,24.8177831 C120.334611,24.5081566 119.882717,24.0318081 119.549743,23.3887377 C119.311904,22.8647544 119.127579,22.2514557 118.996767,21.5488418 C118.865956,20.8462278 118.776766,20.0364354 118.729199,19.1194646 C118.681631,18.2024939 118.657847,17.184299 118.657847,16.0648801 C118.657847,15.0169135 118.675685,14.0523079 118.711361,13.1710633 C118.747037,12.2898186 118.83028,11.4919349 118.961092,10.7774123 C119.091903,10.0628896 119.28812,9.45554528 119.549743,8.9553794 C119.882717,8.31230898 120.340557,7.82405181 120.923263,7.49060789 C121.505968,7.15716397 122.261107,6.99044201 123.188679,6.99044201 C124.948687,6.99044201 126.149774,7.64542114 126.791939,8.9553794 C127.053561,9.45554528 127.249779,10.0628896 127.38059,10.7774123 C127.511401,11.4919349 127.594645,12.2898186 127.630321,13.1710633 C127.665997,14.0523079 127.683835,15.0169135 127.683835,16.0648801 C127.683835,17.184299 127.660051,18.2084482 127.612483,19.1373277 C127.564915,20.0662072 127.481672,20.8879083 127.362752,21.602431 C127.243833,22.3169537 127.053561,22.9362067 126.791939,23.46019 C126.197341,24.6748785 124.996255,25.2822228 123.188679,25.2822228 Z M123.188679,6.13301479 C122.165971,6.13301479 121.369211,5.90079491 120.798397,5.43635517 C120.227584,4.97191542 119.942177,4.33479936 119.942177,3.52500698 C119.942177,2.69139717 120.227584,2.0423724 120.798397,1.57793265 C121.369211,1.11349291 122.165971,0.881273033 123.188679,0.881273033 C124.211386,0.881273033 125.008147,1.11349291 125.57896,1.57793265 C126.149774,2.0423724 126.43518,2.69139717 126.43518,3.52500698 C126.43518,4.33479936 126.149774,4.97191542 125.57896,5.43635517 C125.008147,5.90079491 124.211386,6.13301479 123.188679,6.13301479 Z" id="Shape" fill="#000000"></path>
                    <path d="M144.524352,0.993212706 C146.251634,1.05384686 147.926882,1.99405951 148.890384,3.44363706 C149.978839,2.08688252 151.737373,1.3012003 153.462054,1.39639402 C155.186735,1.49158774 156.843797,2.46610164 157.776128,3.93569026 C158.70846,5.40553873 158.897883,7.33278628 158.162649,8.99898088 C159.973023,9.31737255 161.606684,10.5361425 162.435101,12.1925695 C163.268712,13.8489959 163.278901,15.9028053 162.465743,17.5697871 C161.652586,19.2367688 160.031671,20.4782047 158.229025,20.8076044 C158.771745,22.2619004 158.750808,23.871119 158.163649,25.3094155 C157.576489,26.7474522 156.428316,27.8885417 154.981498,28.420845 C153.552862,28.94743 152.324291,28.8311402 151.080162,28.4448736 C149.838631,28.0586067 148.833512,27.1934234 147.869988,25.9592569 C146.799737,27.101638 145.724327,27.8729617 144.451562,28.1456634 C143.178797,28.4186249 141.945019,28.423683 140.568448,27.7705691 C139.176292,27.1101811 138.137444,25.8705653 137.680442,24.3853394 C137.226038,22.9001132 137.350872,21.2955616 138.023742,19.8962333 C136.257541,19.4058203 134.753767,18.0233356 134.096788,16.2899779 C133.434615,14.5566207 133.634817,12.5121451 134.611603,10.937392 C135.588389,9.36237912 137.323574,8.29554752 139.154774,8.14153998 C138.57312,6.4159702 138.936945,4.51361344 139.999428,3.1337353 C141.06191,1.75411701 142.79707,0.932838397 144.524352,0.993212706 Z" id="Path-Copy-2" fill="#FACC15" transform="translate(148.3893, 14.8831) rotate(-4) translate(-148.3893, -14.8831)"></path>
                </g>
            </g>
        </g>
    </g>
</svg>