<?xml version="1.0" encoding="UTF-8"?>
<svg width="113px" height="30px" viewBox="0 0 113 30" version="1.1" xmlns="http://www.w3.org/2000/svg" xmlns:xlink="http://www.w3.org/1999/xlink">
    <title>useminji</title>
    <g id="Page-1" stroke="none" stroke-width="1" fill="none" fill-rule="evenodd">
        <g id="MacBook-Pro-13&quot;" transform="translate(-664, -33)" fill-rule="nonzero">
            <g id="useminji" transform="translate(664, 33)">
                <path d="M5.28002446,25.2822228 C4.11461365,25.2822228 3.22271763,25.0797747 2.60433639,24.6748785 C1.98595514,24.2699823 1.51027727,23.7340903 1.17730275,23.0672025 C0.772976553,22.2335927 0.475677879,21.2273066 0.285406727,20.0483441 C0.0951355758,18.8693817 0,17.5534691 0,16.1006063 C0,14.4095693 0.0654057084,13.0757936 0.196217125,12.0992792 C0.327028542,11.1227649 0.51135372,10.3367899 0.749192659,9.74135436 C1.15351886,8.7410226 1.66487258,8.03245427 2.28325382,7.61564936 C2.90163506,7.19884446 3.61515188,6.99044201 4.42380427,6.99044201 C5.16110499,6.99044201 5.76759428,7.09166606 6.24327216,7.29411415 C6.71895004,7.49656225 7.11138429,7.83596053 7.42057491,8.31230898 C7.75354943,8.76484002 8.06274005,8.99110554 8.34814678,8.99110554 C8.53841793,8.99110554 8.84760855,8.76484002 9.27571864,8.31230898 C9.72761263,7.83596053 10.2568043,7.48465354 10.8632936,7.25838802 C11.4697829,7.0321225 12.2487054,6.91898974 13.2000611,6.91898974 C14.0087135,6.91898974 14.6806085,7.02616815 15.2157462,7.24052495 C15.7508838,7.45488176 16.1968318,7.8121431 16.5535902,8.31230898 C16.7438613,8.55048321 16.9044026,8.72315953 17.035214,8.83033793 C17.1660255,8.93751634 17.3146748,8.99110554 17.4811621,8.99110554 C17.6714332,8.99110554 17.9806238,8.76484002 18.4087339,8.31230898 C18.836844,7.78832568 19.3600897,7.42510998 19.9784709,7.22266189 C20.5968522,7.02021379 21.3817207,6.91898974 22.3330764,6.91898974 C23.7363262,6.91898974 24.8363313,7.31197722 25.6330917,8.09795218 C26.4298522,8.88392713 27.0006656,9.92593939 27.3455321,11.2239889 C27.6903985,12.5220385 27.8628318,13.9451295 27.8628318,15.493262 C27.8628318,17.0175771 27.809318,18.4466224 27.7022905,19.7803981 C27.595263,21.1141738 27.3395861,22.1978665 26.9352599,23.0314764 C26.6022854,23.6983642 26.1682293,24.2402106 25.6330917,24.6570155 C25.0979541,25.0738204 24.2357879,25.2822228 23.0465932,25.2822228 C21.7146952,25.2822228 20.7573934,24.9249615 20.174688,24.2104388 C19.5919826,23.4959161 19.3006299,22.6861237 19.3006299,21.7810616 C19.3006299,21.0903564 19.3303598,20.2269748 19.3898195,19.1909169 C19.4492793,18.154859 19.4790091,17.2319339 19.4790091,16.4221415 C19.4790091,15.945793 19.4195494,15.576623 19.3006299,15.3146313 C19.1817105,15.0526397 19.0033313,14.9216438 18.7654923,14.9216438 C18.6465729,14.9216438 18.5395453,14.95737 18.4444098,15.0288222 C18.3492742,15.1002745 18.2719765,15.2014986 18.2125168,15.3324944 C18.1530571,15.4634902 18.1054893,15.6242578 18.0698134,15.8147972 C18.0341376,16.0053366 18.0162997,16.2077847 18.0162997,16.4221415 C18.0162997,17.0652119 18.0341376,17.6785105 18.0698134,18.2620374 C18.1054893,18.8455643 18.1411651,19.4231368 18.176841,19.9947549 C18.2125168,20.5663731 18.2303547,21.1618087 18.2303547,21.7810616 C18.2303547,23.0195676 17.8379205,23.912721 17.053052,24.4605217 C16.2681835,25.0083225 15.3287197,25.2822228 14.2346605,25.2822228 C12.7124913,25.2822228 11.654108,24.9249615 11.0595107,24.2104388 C10.4649133,23.4959161 10.1676147,22.6861237 10.1676147,21.7810616 C10.1676147,21.0903564 10.1973445,20.2269748 10.2568043,19.1909169 C10.316264,18.154859 10.3459939,17.2319339 10.3459939,16.4221415 C10.3459939,15.945793 10.2865341,15.576623 10.1676147,15.3146313 C10.0486952,15.0526397 9.87031599,14.9216438 9.63247705,14.9216438 C9.51355758,14.9216438 9.40653006,14.95737 9.31139448,15.0288222 C9.21625891,15.1002745 9.13896125,15.2014986 9.07950152,15.3324944 C9.02004178,15.4634902 8.97247399,15.6183035 8.93679815,15.7969341 C8.90112231,15.9755648 8.88328439,16.1839673 8.88328439,16.4221415 C8.88328439,17.3748384 8.91896023,18.2739461 8.99031191,19.1194646 C9.06166359,19.9649831 9.09733944,20.8521822 9.09733944,21.7810616 C9.09733944,23.0195676 8.71085116,23.912721 7.93787461,24.4605217 C7.16489805,25.0083225 6.278948,25.2822228 5.28002446,25.2822228 Z" id="Path" fill="#000000"></path>
                <path d="M33.1071804,25.2822228 C32.1558246,25.2822228 31.39474,25.1274096 30.8239266,24.8177831 C30.2531131,24.5081566 29.8012191,24.0318081 29.4682446,23.3887377 C29.2304057,22.8647544 29.0460805,22.2514557 28.9152691,21.5488418 C28.7844577,20.8462278 28.6952681,20.0364354 28.6477003,19.1194646 C28.6001325,18.2024939 28.5763486,17.184299 28.5763486,16.0648801 C28.5763486,15.0169135 28.5941865,14.0523079 28.6298623,13.1710633 C28.6655382,12.2898186 28.7487818,11.4919349 28.8795932,10.7774123 C29.0104046,10.0628896 29.2066218,9.45554528 29.4682446,8.9553794 C29.8012191,8.31230898 30.2590591,7.82405181 30.8417645,7.49060789 C31.4244699,7.15716397 32.1796085,6.99044201 33.1071804,6.99044201 C34.8671885,6.99044201 36.0682752,7.64542114 36.7104403,8.9553794 C36.9720631,9.45554528 37.1682803,10.0628896 37.2990917,10.7774123 C37.4299031,11.4919349 37.5131467,12.2898186 37.5488226,13.1710633 C37.5844984,14.0523079 37.6023363,15.0169135 37.6023363,16.0648801 C37.6023363,17.184299 37.5785524,18.2084482 37.5309847,19.1373277 C37.4834169,20.0662072 37.4001732,20.8879083 37.2812538,21.602431 C37.1623343,22.3169537 36.9720631,22.9362067 36.7104403,23.46019 C36.115843,24.6748785 34.9147563,25.2822228 33.1071804,25.2822228 Z M33.1071804,6.13301479 C32.0844729,6.13301479 31.2877125,5.90079491 30.716899,5.43635517 C30.1460856,4.97191542 29.8606789,4.33479936 29.8606789,3.52500698 C29.8606789,2.69139717 30.1460856,2.0423724 30.716899,1.57793265 C31.2877125,1.11349291 32.0844729,0.881273033 33.1071804,0.881273033 C34.1298878,0.881273033 34.9266483,1.11349291 35.4974617,1.57793265 C36.0682752,2.0423724 36.3536819,2.69139717 36.3536819,3.52500698 C36.3536819,4.33479936 36.0682752,4.97191542 35.4974617,5.43635517 C34.9266483,5.90079491 34.1298878,6.13301479 33.1071804,6.13301479 Z" id="Shape" fill="#000000"></path>
                <path d="M43.5602018,25.2822228 C42.394791,25.2822228 41.5088409,25.0797747 40.9023516,24.6748785 C40.2958623,24.2699823 39.8261304,23.7221816 39.4931559,23.0314764 C39.0888297,22.1978665 38.791531,21.1975348 38.6012599,20.0304811 C38.4109887,18.8634273 38.3158532,17.5534691 38.3158532,16.1006063 C38.3158532,14.1237602 38.4050428,12.6351712 38.583422,11.6348395 C38.7618012,10.6345077 39.0055861,9.83662405 39.3147767,9.24118848 C39.7191029,8.4313961 40.2007267,7.85382359 40.7596483,7.50847096 C41.3185698,7.16311833 41.9666809,6.99044201 42.7039816,6.99044201 C43.4412823,6.99044201 44.0477716,7.09166606 44.5234495,7.29411415 C44.9991274,7.49656225 45.3915616,7.83596053 45.7007522,8.31230898 C46.0575106,8.76484002 46.3667013,8.99110554 46.6283241,8.99110554 C46.866163,8.99110554 47.1753536,8.76484002 47.555896,8.31230898 C48.0315738,7.76450826 48.5726574,7.38342949 49.1791467,7.16907268 C49.785636,6.95471588 50.5526666,6.84753747 51.4802385,6.84753747 C52.8834882,6.84753747 53.9894393,7.24052495 54.7980917,8.02649991 C55.6067441,8.81247487 56.1835035,9.86044147 56.5283699,11.1703997 C56.8732364,12.480358 57.0456696,13.9213121 57.0456696,15.493262 C57.0456696,17.0175771 56.9862099,18.4466224 56.8672904,19.7803981 C56.748371,21.1141738 56.4867481,22.1978665 56.0824219,23.0314764 C55.7732313,23.7221816 55.3451212,24.2699823 54.7980917,24.6748785 C54.2510621,25.0797747 53.38295,25.2822228 52.1937553,25.2822228 C50.8618572,25.2822228 49.9105015,24.9249615 49.339688,24.2104388 C48.7688745,23.4959161 48.4834678,22.6861237 48.4834678,21.7810616 C48.4834678,21.0903564 48.5131977,20.2269748 48.5726574,19.1909169 C48.6321172,18.154859 48.661847,17.2319339 48.661847,16.4221415 C48.661847,15.945793 48.5964413,15.576623 48.4656299,15.3146313 C48.3348185,15.0526397 48.1504933,14.9216438 47.9126544,14.9216438 C47.7937349,14.9216438 47.6867074,14.95737 47.5915718,15.0288222 C47.4964362,15.1002745 47.4191386,15.2014986 47.3596788,15.3324944 C47.3002191,15.4634902 47.2526513,15.6183035 47.2169755,15.7969341 C47.1812996,15.9755648 47.1634617,16.1839673 47.1634617,16.4221415 C47.1634617,17.3748384 47.2050835,18.2739461 47.2883271,19.1194646 C47.3715708,19.9649831 47.4131926,20.8521822 47.4131926,21.7810616 C47.4131926,23.0195676 47.0207583,23.912721 46.2358898,24.4605217 C45.4510213,25.0083225 44.5591253,25.2822228 43.5602018,25.2822228 Z" id="Path" fill="#000000"></path>
                <path d="M60.2564953,29.9980726 C59.0910845,29.9980726 58.2408103,29.6944004 57.7056727,29.0870561 C57.1705351,28.4797118 56.9029663,27.7473261 56.9029663,26.8898989 C56.9029663,26.1277413 56.95648,25.4846709 57.0635076,24.9606876 C57.1705351,24.4367043 57.2954005,23.9544015 57.4381039,23.5137792 C57.5808073,23.0731568 57.7056727,22.6146714 57.8127002,22.138323 C57.9197277,21.6619745 57.9732415,21.0903564 57.9732415,20.4234685 C57.9732415,19.5898587 57.9732415,18.6192988 57.9732415,17.5117886 C57.9732415,16.4042784 57.9732415,15.2669965 57.9732415,14.0999428 C57.9732415,13.1710633 58.0208093,12.3374535 58.1159449,11.5991133 C58.2110804,10.8607732 58.3418919,10.2177028 58.5083791,9.66990209 C58.7937858,8.78865744 59.2456798,8.1217696 59.8640611,7.66923857 C60.4824423,7.21670753 61.3386625,6.99044201 62.4327216,6.99044201 C63.5505646,6.99044201 64.4127308,7.30602287 65.0192201,7.93718457 C65.6257094,8.56834628 66.0716574,9.50318013 66.3570641,10.7416861 C66.5235514,11.4323914 66.6484168,12.2302751 66.7316604,13.1353371 C66.8149041,14.0403992 66.8684178,15.0288222 66.8922017,16.1006063 C66.9159856,17.1723903 66.9278776,18.3275353 66.9278776,19.5660413 C66.9278776,21.9477836 66.6603088,23.912721 66.1251712,25.4608535 C65.5900335,27.008986 64.8289489,28.1522223 63.8419173,28.8905624 C62.8548857,29.6289025 61.6597451,29.9980726 60.2564953,29.9980726 Z M62.3613699,6.13301479 C61.3386625,6.13301479 60.541902,5.90079491 59.9710886,5.43635517 C59.4002751,4.97191542 59.1148684,4.33479936 59.1148684,3.52500698 C59.1148684,2.69139717 59.4002751,2.0423724 59.9710886,1.57793265 C60.541902,1.11349291 61.3386625,0.881273033 62.3613699,0.881273033 C63.3840774,0.881273033 64.1808378,1.11349291 64.7516513,1.57793265 C65.3224647,2.0423724 65.6078715,2.69139717 65.6078715,3.52500698 C65.6078715,4.33479936 65.3224647,4.97191542 64.7516513,5.43635517 C64.1808378,5.90079491 63.3840774,6.13301479 62.3613699,6.13301479 Z" id="Shape" fill="#000000"></path>
                <path d="M72.1722262,25.2822228 C71.2208704,25.2822228 70.4597858,25.1274096 69.8889724,24.8177831 C69.3181589,24.5081566 68.8662649,24.0318081 68.5332904,23.3887377 C68.2954515,22.8647544 68.1111263,22.2514557 67.9803149,21.5488418 C67.8495035,20.8462278 67.7603139,20.0364354 67.7127461,19.1194646 C67.6651783,18.2024939 67.6413944,17.184299 67.6413944,16.0648801 C67.6413944,15.0169135 67.6592323,14.0523079 67.6949082,13.1710633 C67.730584,12.2898186 67.8138276,11.4919349 67.944639,10.7774123 C68.0754505,10.0628896 68.2716676,9.45554528 68.5332904,8.9553794 C68.8662649,8.31230898 69.3241049,7.82405181 69.9068103,7.49060789 C70.4895157,7.15716397 71.2446543,6.99044201 72.1722262,6.99044201 C73.9322343,6.99044201 75.133321,7.64542114 75.7754861,8.9553794 C76.037109,9.45554528 76.2333261,10.0628896 76.3641375,10.7774123 C76.4949489,11.4919349 76.5781925,12.2898186 76.6138684,13.1710633 C76.6495442,14.0523079 76.6673821,15.0169135 76.6673821,16.0648801 C76.6673821,17.184299 76.6435983,18.2084482 76.5960305,19.1373277 C76.5484627,20.0662072 76.465219,20.8879083 76.3462996,21.602431 C76.2273801,22.3169537 76.037109,22.9362067 75.7754861,23.46019 C75.1808888,24.6748785 73.9798021,25.2822228 72.1722262,25.2822228 Z M72.1722262,6.13301479 C71.1495188,6.13301479 70.3527583,5.90079491 69.7819448,5.43635517 C69.2111314,4.97191542 68.9257247,4.33479936 68.9257247,3.52500698 C68.9257247,2.69139717 69.2111314,2.0423724 69.7819448,1.57793265 C70.3527583,1.11349291 71.1495188,0.881273033 72.1722262,0.881273033 C73.1949336,0.881273033 73.9916941,1.11349291 74.5625075,1.57793265 C75.133321,2.0423724 75.4187277,2.69139717 75.4187277,3.52500698 C75.4187277,4.33479936 75.133321,4.97191542 74.5625075,5.43635517 C73.9916941,5.90079491 73.1949336,6.13301479 72.1722262,6.13301479 Z" id="Shape" fill="#000000"></path>
                <path d="M93.5078998,0.993212706 C95.2351818,1.05384686 96.9104291,1.99405951 97.8739319,3.44363706 C98.962386,2.08688252 100.72092,1.3012003 102.445601,1.39639402 C104.170282,1.49158774 105.827344,2.46610164 106.759676,3.93569026 C107.692008,5.40553873 107.881431,7.33278628 107.146196,8.99898088 C108.956571,9.31737255 110.590232,10.5361425 111.418648,12.1925695 C112.25226,13.8489959 112.262448,15.9028053 111.449291,17.5697871 C110.636133,19.2367688 109.015218,20.4782047 107.212573,20.8076044 C107.755292,22.2619004 107.734355,23.871119 107.147196,25.3094155 C106.560037,26.7474522 105.411863,27.8885417 103.965045,28.420845 C102.53641,28.94743 101.307839,28.8311402 100.06371,28.4448736 C98.8221783,28.0586067 97.8170594,27.1934234 96.8535355,25.9592569 C95.7832843,27.101638 94.7078746,27.8729617 93.4351095,28.1456634 C92.1623443,28.4186249 90.9285667,28.423683 89.5519953,27.7705691 C88.1598399,27.1101811 87.1209912,25.8705653 86.6639898,24.3853394 C86.2095859,22.9001132 86.3344195,21.2955616 87.0072897,19.8962333 C85.2410885,19.4058203 83.7373146,18.0233356 83.0803358,16.2899779 C82.4181621,14.5566207 82.6183642,12.5121451 83.5951504,10.937392 C84.5719366,9.36237912 86.3071213,8.29554752 88.1383213,8.14153998 C87.556667,6.4159702 87.920493,4.51361344 88.9829751,3.1337353 C90.0454573,1.75411701 91.7806179,0.932838397 93.5078998,0.993212706 Z" id="Path-Copy-2" fill="#FACC15" transform="translate(97.3728, 14.8831) rotate(-4) translate(-97.3728, -14.8831)"></path>
            </g>
        </g>
    </g>
</svg>