<?xml version="1.0" encoding="UTF-8"?>
<svg width="32px" height="30px" viewBox="0 0 32 30" version="1.1" xmlns="http://www.w3.org/2000/svg" xmlns:xlink="http://www.w3.org/1999/xlink">
    <title>Path Copy 2</title>
    <g id="Page-1" stroke="none" stroke-width="1" fill="none" fill-rule="evenodd">
        <g id="MacBook-Pro-13&quot;" transform="translate(-770, -33)" fill="#FACC15" fill-rule="nonzero">
            <g id="Top-Menu" transform="translate(0, 24)">
                <g id="useminji" transform="translate(638, 9)">
                    <path d="M144.524352,0.993212706 C146.251634,1.05384686 147.926882,1.99405951 148.890384,3.44363706 C149.978839,2.08688252 151.737373,1.3012003 153.462054,1.39639402 C155.186735,1.49158774 156.843797,2.46610164 157.776128,3.93569026 C158.70846,5.40553873 158.897883,7.33278628 158.162649,8.99898088 C159.973023,9.31737255 161.606684,10.5361425 162.435101,12.1925695 C163.268712,13.8489959 163.278901,15.9028053 162.465743,17.5697871 C161.652586,19.2367688 160.031671,20.4782047 158.229025,20.8076044 C158.771745,22.2619004 158.750808,23.871119 158.163649,25.3094155 C157.576489,26.7474522 156.428316,27.8885417 154.981498,28.420845 C153.552862,28.94743 152.324291,28.8311402 151.080162,28.4448736 C149.838631,28.0586067 148.833512,27.1934234 147.869988,25.9592569 C146.799737,27.101638 145.724327,27.8729617 144.451562,28.1456634 C143.178797,28.4186249 141.945019,28.423683 140.568448,27.7705691 C139.176292,27.1101811 138.137444,25.8705653 137.680442,24.3853394 C137.226038,22.9001132 137.350872,21.2955616 138.023742,19.8962333 C136.257541,19.4058203 134.753767,18.0233356 134.096788,16.2899779 C133.434615,14.5566207 133.634817,12.5121451 134.611603,10.937392 C135.588389,9.36237912 137.323574,8.29554752 139.154774,8.14153998 C138.57312,6.4159702 138.936945,4.51361344 139.999428,3.1337353 C141.06191,1.75411701 142.79707,0.932838397 144.524352,0.993212706 Z" id="Path-Copy-2" transform="translate(148.3893, 14.8831) rotate(-4) translate(-148.3893, -14.8831)"></path>
                </g>
            </g>
        </g>
    </g>
</svg>