<?xml version="1.0" encoding="UTF-8"?>
<svg width="16px" height="20px" viewBox="0 0 16 20" version="1.1" xmlns="http://www.w3.org/2000/svg" xmlns:xlink="http://www.w3.org/1999/xlink">
    <title>Apple_logo_black</title>
    <g id="Page-1" stroke="none" stroke-width="1" fill="none" fill-rule="evenodd">
        <g id="MacBook-Pro-13&quot;" transform="translate(-1179, -38)" fill="#FFFFFF" fill-rule="nonzero">
            <g id="Top-Menu" transform="translate(0, 24)">
                <g id="Btn-CTA" transform="translate(1067, 0)">
                    <g id="Group-6" transform="translate(24, 14)">
                        <g id="Apple_logo_black" transform="translate(88, 0)">
                            <path d="M15.4890063,6.73846208 C15.3750154,6.82741215 13.3624862,7.96794974 13.3624862,10.5040151 C13.3624862,13.4373908 15.9233509,14.4751416 16,14.5008383 C15.9882078,14.5640917 15.5931704,15.9220628 14.6497973,17.3057306 C13.808623,18.5233582 12.9301069,19.7390092 11.5936617,19.7390092 C10.2572166,19.7390092 9.91327847,18.9582252 8.37047046,18.9582252 C6.86696966,18.9582252 6.3323916,19.7647059 5.10993735,19.7647059 C3.88748311,19.7647059 3.03451664,18.638005 2.05380174,17.2543372 C0.917823363,15.6295159 0,13.1053105 0,10.7095886 C0,6.86694552 2.4842157,4.82900055 4.92912419,4.82900055 C6.22822749,4.82900055 7.31114114,5.68687457 8.12676575,5.68687457 C8.90308316,5.68687457 10.1137452,4.77760717 11.5916964,4.77760717 C12.1518241,4.77760717 14.1643533,4.82900055 15.4890063,6.73846208 Z M10.8900626,3.1508092 C11.5012898,2.42141861 11.9336691,1.40936447 11.9336691,0.397310319 C11.9336691,0.256966873 11.9218769,0.114646759 11.8963272,0 C10.9018548,0.0375566968 9.71870778,0.666137202 9.00528191,1.49831454 C8.44515416,2.13875505 7.92236826,3.1508092 7.92236826,4.17670002 C7.92236826,4.33088015 7.94791795,4.48506027 7.95971011,4.53447698 C8.02260165,4.54633699 8.12480039,4.56017366 8.22699914,4.56017366 C9.11927282,4.56017366 10.2414937,3.95926651 10.8900626,3.1508092 Z" id="Shape"></path>
                        </g>
                    </g>
                </g>
            </g>
        </g>
    </g>
</svg>