<?xml version="1.0" encoding="UTF-8"?>
<svg width="19px" height="19px" viewBox="0 0 19 19" version="1.1" xmlns="http://www.w3.org/2000/svg" xmlns:xlink="http://www.w3.org/1999/xlink">
    <title>dribbble-logo-fill</title>
    <g id="Page-1" stroke="none" stroke-width="1" fill="none" fill-rule="evenodd">
        <g id="MacBook-Pro-13&quot;" transform="translate(-352, -39)">
            <g id="Top-Menu" transform="translate(0, 24)">
                <g id="Sosmed" transform="translate(220, 15)">
                    <g id="dribbble-logo-fill" transform="translate(132, 0)">
                        <polygon id="Path" points="0 0 19 0 19 19 0 19"></polygon>
                        <path d="M6.5887025,3.14397669 C6.49074647,3.08424636 6.43627581,2.97340455 6.44895525,2.85960638 C6.46163468,2.74580821 6.53917565,2.64959364 6.64789053,2.61276301 C8.83172223,1.85938668 11.2397412,2.12770741 13.2029648,3.34318182 C13.2759253,3.38660688 13.3266491,3.4592099 13.3422222,3.54250623 C13.3577952,3.62580256 13.336715,3.71175564 13.2843483,3.77848191 C12.4241481,4.86702135 11.3739899,5.79179464 10.1843753,6.50832997 C9.22162761,5.15999648 7.99930844,4.01631246 6.5887025,3.14397669 L6.5887025,3.14397669 Z M9.12638926,7.06167755 C8.04317227,5.59399626 6.62225412,4.40728043 4.9832272,3.60141069 C4.88489716,3.5569895 4.77068723,3.56532313 4.67988854,3.62354459 C3.35373483,4.57605334 2.36225103,5.9210383 1.84626163,7.46746578 C1.82157426,7.5468339 1.83158529,7.63290334 1.87383525,7.70452891 C1.91608522,7.77615449 1.98665842,7.826698 2.06821674,7.84374213 C2.84135132,8.01012109 3.63000906,8.09420893 4.42094091,8.09460187 C6.04619489,8.0966374 7.65222143,7.74409083 9.12638926,7.06167755 L9.12638926,7.06167755 Z M16.8060361,9.03159494 C16.6167946,7.32024296 15.8558843,5.72208916 14.645673,4.49414478 C14.5852668,4.43547488 14.5030973,4.40452667 14.4188802,4.40872584 C14.3346631,4.41292501 14.2559991,4.45189257 14.2017628,4.51627868 C13.2661898,5.7069214 12.1203354,6.7170751 10.8206466,7.49697765 C11.2260518,8.19851699 11.5629957,8.93724192 11.8268431,9.70299 C12.8856949,9.41746664 13.9779075,9.27356574 15.0747862,9.27506787 C15.5445033,9.2761524 16.0137976,9.30324666 16.4805019,9.35622552 C16.5693988,9.36563873 16.6577987,9.33447454 16.7210116,9.27143704 C16.7842246,9.20839955 16.8154755,9.12024505 16.8060361,9.03159494 L16.8060361,9.03159494 Z M12.1523773,10.839197 C12.369744,11.7704573 12.4789733,12.7235603 12.4779114,13.6797146 C12.4773658,14.5931232 12.375636,15.5036764 12.1745728,16.3948067 C12.1476554,16.5066973 12.1884059,16.6239865 12.2789701,16.6952861 C12.3695343,16.7665857 12.493396,16.7788928 12.5962875,16.7268153 C14.8756517,15.5899184 16.4434509,13.4021968 16.7838406,10.8834648 C16.7942897,10.8050848 16.7727617,10.7258015 16.7240825,10.6633877 C16.6754033,10.6009739 16.6036448,10.5606504 16.524893,10.5514563 C16.0443405,10.4859783 15.559801,10.4539297 15.0747862,10.4554847 C14.0879447,10.4543224 13.1052798,10.5833269 12.1523773,10.839197 L12.1523773,10.839197 Z M10.694872,10.0718884 C10.4604154,9.37274792 10.1529215,8.70011735 9.77745759,8.06508116 C8.10542846,8.86357651 6.27480888,9.27709625 4.42094091,9.27506787 C3.55303134,9.27459947 2.68757805,9.18310122 1.83886313,9.00208306 C1.755699,8.98487749 1.66913055,9.00413411 1.60118255,9.05495366 C1.53323456,9.1057732 1.49045758,9.18325639 1.48373495,9.2676899 C1.46893794,9.46443571 1.46153895,9.66364084 1.46153895,9.86530529 C1.46078045,11.9889358 2.34515271,14.017346 3.90304566,15.4651828 C3.96740686,15.5268198 4.05674433,15.5552931 4.14502243,15.5423046 C4.23330054,15.5293161 4.31058558,15.4763274 4.35435438,15.3987811 C5.79793029,12.9549554 8.03475926,11.0757165 10.694872,10.0718884 L10.694872,10.0718884 Z M5.28656585,16.1513338 C5.24669048,16.2196769 5.23598403,16.3011184 5.25684654,16.377402 C5.27770904,16.4536855 5.3283954,16.51843 5.3975434,16.557122 C6.54417127,17.2028542 7.83915246,17.5409535 9.15598328,17.5383917 C9.60505707,17.5403566 10.0533482,17.5008387 10.4951124,17.4203442 C10.5993724,17.403087 10.6851193,17.3289793 10.7170676,17.2285171 C11.1008225,16.0845399 11.2957207,14.8860034 11.2941603,13.6797146 C11.2937361,12.848342 11.2019397,12.0195194 11.0204062,11.2080954 C8.596921,12.1508668 6.5723823,13.896255 5.28656585,16.1513338 L5.28656585,16.1513338 Z" id="Shape" fill="#212121" fill-rule="nonzero"></path>
                    </g>
                </g>
            </g>
        </g>
    </g>
</svg>