<?xml version="1.0" encoding="UTF-8"?>
<svg width="26px" height="26px" viewBox="0 0 26 26" version="1.1" xmlns="http://www.w3.org/2000/svg" xmlns:xlink="http://www.w3.org/1999/xlink">
    <title>Sale</title>
    <g id="Page-1" stroke="none" stroke-width="1" fill="none" fill-rule="evenodd">
        <g id="MacBook-Pro-13&quot;" transform="translate(-193, -1722)">
            <g id="Why-Useminji" transform="translate(159, 1510)">
                <g id="Cards" transform="translate(0, 177)">
                    <g id="Group-11" transform="translate(34.5, 34)">
                        <g id="Group-10" transform="translate(0.5, 0)">
                            <g id="Sale" transform="translate(0, 2)">
                                <path d="M9.11088887,1.44032756 C9.84514708,0.814592731 10.2122306,0.501731827 10.5961122,0.31825517 C11.4839361,-0.106085057 12.5160411,-0.106085057 13.403865,0.31825517 C13.7877466,0.501731827 14.1548301,0.814592731 14.8891274,1.44032756 C15.1813358,1.6893688 15.32744,1.81389593 15.4835709,1.91848674 C15.8412788,2.15825648 16.2430002,2.32466161 16.6654263,2.40806601 C16.8498144,2.44446184 17.0411041,2.45972334 17.423944,2.4902724 C18.3856013,2.56700966 18.8663648,2.6053848 19.2675654,2.74707461 C20.1953661,3.07479335 20.9252359,3.80461114 21.2529938,4.7324509 C21.3946705,5.13359937 21.4329545,5.61444103 21.5097829,6.57609831 C21.5402539,6.95884702 21.5554893,7.15021487 21.5919503,7.33452492 C21.6752896,7.75701605 21.8417077,8.1587505 22.0815686,8.51647138 C22.1861334,8.6725242 22.3106214,8.81865444 22.5597278,9.11088887 C23.1854235,9.84514708 23.4983365,10.2122306 23.6818132,10.5961122 C24.1060623,11.4839361 24.1060623,12.5160411 23.6818132,13.403865 C23.4983365,13.7877466 23.1854235,14.1548301 22.5597278,14.8891274 C22.3106214,15.1813358 22.1861334,15.32744 22.0815686,15.4835709 C21.8417077,15.8412788 21.6752896,16.2430002 21.5919503,16.6654263 C21.5554893,16.8498144 21.5402539,17.0411041 21.5097829,17.423944 C21.4329545,18.3856013 21.3946705,18.8663648 21.2529938,19.2675654 C20.9252359,20.1953661 20.1953661,20.9252359 19.2675654,21.2529938 C18.8663648,21.3946705 18.3856013,21.4329545 17.423944,21.5097829 C17.0411041,21.5402539 16.8498144,21.5554893 16.6654263,21.5919503 C16.2430002,21.6752896 15.8412788,21.8417077 15.4835709,22.0815686 C15.32744,22.1861334 15.1813358,22.3106214 14.8891274,22.5597278 C14.1548301,23.1854235 13.7877466,23.4983365 13.403865,23.6818132 C12.5160411,24.1060623 11.4839361,24.1060623 10.5961122,23.6818132 C10.2122306,23.4983365 9.84514708,23.1854235 9.11088887,22.5597278 C8.81865444,22.3106214 8.6725242,22.1861334 8.51647138,22.0815686 C8.1587505,21.8417077 7.75701605,21.6752896 7.33452492,21.5919503 C7.15021487,21.5554893 6.95884702,21.5402539 6.57609831,21.5097829 C5.61444103,21.4329545 5.13359937,21.3946705 4.7324509,21.2529938 C3.80461114,20.9252359 3.07479335,20.1953661 2.74707461,19.2675654 C2.6053848,18.8663648 2.56700966,18.3856013 2.4902724,17.423944 C2.45972334,17.0411041 2.44446184,16.8498144 2.40806601,16.6654263 C2.32466161,16.2430002 2.15825648,15.8412788 1.91848674,15.4835709 C1.81389593,15.32744 1.6893688,15.1813358 1.44032756,14.8891274 C0.814592731,14.1548301 0.501731827,13.7877466 0.31825517,13.403865 C-0.106085057,12.5160411 -0.106085057,11.4839361 0.31825517,10.5961122 C0.501731827,10.2122306 0.814592731,9.84514708 1.44032756,9.11088887 C1.6893688,8.81865444 1.81389593,8.67253722 1.91848674,8.51647138 C2.15825648,8.1587505 2.32466161,7.75701605 2.40806601,7.33452492 C2.44446184,7.15021487 2.45972334,6.95884702 2.4902724,6.57609831 C2.56700966,5.61444103 2.6053848,5.13359937 2.74707461,4.7324509 C3.07479335,3.80461114 3.80461114,3.07479335 4.7324509,2.74707461 C5.13359937,2.6053848 5.61444103,2.56700966 6.57609831,2.4902724 C6.95884702,2.45972334 7.15021487,2.44446184 7.33452492,2.40806601 C7.75701605,2.32466161 8.1587505,2.15825648 8.51647138,1.91848674 C8.67253722,1.81389593 8.81865444,1.6893688 9.11088887,1.44032756 Z" id="Path" stroke="#000000" stroke-width="2"></path>
                                <line x1="8" y1="16" x2="16" y2="8" id="Path" stroke="#000000" stroke-width="2" stroke-linecap="round"></line>
                                <path d="M17,15.5 C17,16.32845 16.32845,17 15.5,17 C14.67155,17 14,16.32845 14,15.5 C14,14.67155 14.67155,14 15.5,14 C16.32845,14 17,14.67155 17,15.5 Z" id="Path" fill="#000000" fill-rule="nonzero"></path>
                                <path d="M10,8.5 C10,9.32845 9.32845,10 8.5,10 C7.67158,10 7,9.32845 7,8.5 C7,7.67158 7.67158,7 8.5,7 C9.32845,7 10,7.67158 10,8.5 Z" id="Path" fill="#000000" fill-rule="nonzero"></path>
                            </g>
                        </g>
                    </g>
                </g>
            </g>
        </g>
    </g>
</svg>