<?xml version="1.0" encoding="UTF-8"?>
<svg width="19px" height="19px" viewBox="0 0 19 19" version="1.1" xmlns="http://www.w3.org/2000/svg" xmlns:xlink="http://www.w3.org/1999/xlink">
    <title>twitter-logo-fill</title>
    <g id="Page-1" stroke="none" stroke-width="1" fill="none" fill-rule="evenodd">
        <g id="MacBook-Pro-13&quot;" transform="translate(-220, -39)">
            <g id="Top-Menu" transform="translate(0, 24)">
                <g id="twitter-logo-fill" transform="translate(220, 15)">
                    <polygon id="Path" points="0 0 19 0 19 19 0 19"></polygon>
                    <path d="M15.473483,7.94379428 C15.0066815,13.0406444 10.4164674,17 4.9315505,17 C3.80344703,17 2.86984415,16.8322925 2.16186197,16.5041691 C1.59392023,16.2343787 1.36051951,15.9500051 1.29827932,15.8625056 C1.19395841,15.7140034 1.16759674,15.5290177 1.22667777,15.3600615 C1.2857588,15.1911053 1.42383147,15.0566269 1.60170025,14.9948015 C1.6172603,14.9875098 3.45334595,14.331263 4.64368961,13.0698109 C3.90547518,12.5771824 3.2566298,11.9764544 2.7220237,11.2906529 C1.65616042,9.93440955 0.528056945,7.57921273 1.20491903,4.06464658 C1.24826538,3.85179387 1.41249911,3.67827964 1.63282035,3.61256546 C1.85399688,3.54468955 2.09709953,3.59813393 2.26300229,3.75110644 C2.28634236,3.78027297 4.87709033,6.17192794 8.04356008,6.94484083 L8.04356008,6.50005134 C8.04973107,5.56599094 8.45156643,4.6724868 9.16066286,4.0161088 C9.86975928,3.35973081 10.8280283,2.99424882 11.8246517,2.99993314 C13.1421172,3.01767903 14.3530622,3.68202687 15.0144615,4.75005989 L17.3795888,4.75005989 C17.6308533,4.74932322 17.8579464,4.89025603 17.9553106,5.10734981 C18.0468285,5.32725479 17.9953758,5.57687849 17.8230502,5.74901334 L15.473483,7.94379428 Z" id="Path" fill="#000000" fill-rule="nonzero"></path>
                </g>
            </g>
        </g>
    </g>
</svg>