<?xml version="1.0" encoding="UTF-8"?>
<svg width="26px" height="20px" viewBox="0 0 26 20" version="1.1" xmlns="http://www.w3.org/2000/svg" xmlns:xlink="http://www.w3.org/1999/xlink">
    <title>Cat</title>
    <g id="Page-1" stroke="none" stroke-width="1" fill="none" fill-rule="evenodd">
        <g id="MacBook-Pro-13&quot;" transform="translate(-955, -1726)" stroke="#000000" stroke-width="2">
            <g id="Why-Useminji" transform="translate(159, 1510)">
                <g id="Cards" transform="translate(0, 177)">
                    <g id="It's-simple" transform="translate(760, 0)">
                        <g id="Group-11" transform="translate(34.5, 34)">
                            <g id="Group-10" transform="translate(2.5, 0)">
                                <g id="Cat" transform="translate(0, 6)">
                                    <path d="M20.5187496,6.79210416 C21.8531229,8.36911262 21.5755685,10.297594 21.5756885,11.99976 C21.5756885,16.6871063 15.2555349,17.99964 11.99976,17.99964 C8.74394912,17.99964 2.42387952,16.6871063 2.42387952,11.99976 C2.42389152,10.297594 2.14645707,8.36911262 3.48072239,6.79210416 M20.5187496,6.79210416 C20.2853543,6.51622968 20.0026399,6.25115498 19.6604068,5.99988 M20.5187496,6.79210416 C21.3587328,7.27593448 21.5732885,5.46551869 21.5756885,4.8749025 L21.5756885,2.6250795 C21.5756885,0.675118498 20.2350753,0.00013199736 19.0859783,0.00013199736 C17.9368813,0.00013199736 15.6385672,1.8749625 14.8725025,1.8749625 C13.9532009,1.8749625 13.7762045,1.68759825 11.99976,1.68759825 C10.2234355,1.68759825 10.0463191,1.8749625 9.12702946,1.8749625 C8.36095278,1.8749625 6.06271075,0 4.91361373,0 C3.76450471,0 2.42389152,0.6749865 2.42389152,2.6249475 L2.42389152,4.8749025 C2.42620748,5.46551869 2.64081118,7.27593448 3.48072239,6.79210416 M3.48072239,6.79210416 C3.71415372,6.51622968 3.99690406,6.25115498 4.33910122,5.99988" id="Shape" stroke-linecap="round"></path>
                                    <path d="M12.9909402,13.199616 C12.9909402,13.4067319 12.5576288,13.5746085 12.0231595,13.5746085 C11.4886902,13.5746085 11.0554989,13.4067319 11.0554989,13.199616 C11.0554989,12.9925001 11.4886902,12.8246235 12.0231595,12.8246235 C12.5576288,12.8246235 12.9909402,12.9925001 12.9909402,13.199616 Z" id="Path"></path>
                                    <path d="M16.199676,10.3123538 C16.199676,10.8300234 15.9397612,11.249775 15.6191276,11.249775 C15.298374,11.249775 15.0384592,10.8300234 15.0384592,10.3123538 C15.0384592,9.79456411 15.298374,9.3748125 15.6191276,9.3748125 C15.9397612,9.3748125 16.199676,9.79456411 16.199676,10.3123538 Z" id="Path"></path>
                                    <path d="M8.999964,10.3123538 C8.999964,10.8300234 8.7400132,11.249775 8.41933161,11.249775 C8.09865003,11.249775 7.83869923,10.8300234 7.83869923,10.3123538 C7.83869923,9.79456411 8.09865003,9.3748125 8.41933161,9.3748125 C8.7400132,9.3748125 8.999964,9.79456411 8.999964,10.3123538 Z" id="Path"></path>
                                    <path d="M24,12.5623088 C23.4193316,12.1871963 20.9032219,11.249775 19.9355613,11.249775" id="Path" stroke-linecap="round"></path>
                                    <path d="M22.0640787,15.5622488 C21.4835303,15.1871363 20.1286374,14.249715 19.1609768,14.249715" id="Path" stroke-linecap="round"></path>
                                    <path d="M0,12.5623088 C0.580632387,12.1871963 3.09671807,11.249775 4.06443871,11.249775" id="Path" stroke-linecap="round"></path>
                                    <path d="M1.93530929,15.5622488 C2.51595368,15.1871363 3.87076258,14.249715 4.83848323,14.249715" id="Path" stroke-linecap="round"></path>
                                </g>
                            </g>
                        </g>
                    </g>
                </g>
            </g>
        </g>
    </g>
</svg>