<?xml version="1.0" encoding="UTF-8" standalone="no"?>
<!-- Created with Keyshape -->
<svg xmlns="http://www.w3.org/2000/svg" id="yellow-illustration" shape-rendering="geometricPrecision" text-rendering="geometricPrecision" viewBox="0 0 2000 2000" style="white-space: pre;">
    <style>
@keyframes head_mo { 0% { offset-distance: 0%; animation-timing-function: cubic-bezier(0.333,0,0.667,1); } 16.6667% { offset-distance: 16.666%; animation-timing-function: cubic-bezier(0.167,0,0.833,1); } 33.3333% { offset-distance: 33.333%; animation-timing-function: cubic-bezier(0.333,0,0.667,1); } 50% { offset-distance: 49.999%; animation-timing-function: cubic-bezier(0.167,0,0.833,1); } 66.6667% { offset-distance: 66.666%; animation-timing-function: cubic-bezier(0.333,0,0.667,1); } 83.3333% { offset-distance: 83.333%; animation-timing-function: cubic-bezier(0.167,0,0.833,1); } 99.7167% { offset-distance: 100%; } 100% { offset-distance: 100%; } }
@keyframes right-leg_t { 0% { transform: translate(1111px,1227px) rotate(15deg) translate(-1111px,-1227px); animation-timing-function: cubic-bezier(0.333,0,0.667,1); } 16.6666% { transform: translate(1111px,1227px) rotate(0deg) translate(-1111px,-1227px); animation-timing-function: cubic-bezier(0.167,0,0.833,1); } 33.3333% { transform: translate(1111px,1227px) rotate(15deg) translate(-1111px,-1227px); animation-timing-function: cubic-bezier(0.333,0,0.667,1); } 50% { transform: translate(1111px,1227px) rotate(0deg) translate(-1111px,-1227px); animation-timing-function: cubic-bezier(0.167,0,0.833,1); } 66.6666% { transform: translate(1111px,1227px) rotate(15deg) translate(-1111px,-1227px); animation-timing-function: cubic-bezier(0.333,0,0.667,1); } 83.3333% { transform: translate(1111px,1227px) rotate(0deg) translate(-1111px,-1227px); animation-timing-function: cubic-bezier(0.167,0,0.833,1); } 99.7166% { transform: translate(1111px,1227px) rotate(15deg) translate(-1111px,-1227px); } 100% { transform: translate(1111px,1227px) rotate(15deg) translate(-1111px,-1227px); } }
@keyframes head-2_mo { 0% { offset-distance: 0%; animation-timing-function: cubic-bezier(0.333,0,0.667,1); } 16.6667% { offset-distance: 16.666%; animation-timing-function: cubic-bezier(0.167,0,0.833,1); } 33.3333% { offset-distance: 33.333%; animation-timing-function: cubic-bezier(0.333,0,0.667,1); } 50% { offset-distance: 49.999%; animation-timing-function: cubic-bezier(0.167,0,0.833,1); } 66.6667% { offset-distance: 66.666%; animation-timing-function: cubic-bezier(0.333,0,0.667,1); } 83.3333% { offset-distance: 83.333%; animation-timing-function: cubic-bezier(0.167,0,0.833,1); } 99.7167% { offset-distance: 100%; } 100% { offset-distance: 100%; } }
@keyframes left-leg_t { 0% { transform: translate(1277px,1126px) rotate(15deg) translate(-1277px,-1126px); animation-timing-function: cubic-bezier(0.333,0,0.667,1); } 16.6666% { transform: translate(1277px,1126px) rotate(0deg) translate(-1277px,-1126px); animation-timing-function: cubic-bezier(0.167,0,0.833,1); } 33.3333% { transform: translate(1277px,1126px) rotate(15deg) translate(-1277px,-1126px); animation-timing-function: cubic-bezier(0.333,0,0.667,1); } 50% { transform: translate(1277px,1126px) rotate(0deg) translate(-1277px,-1126px); animation-timing-function: cubic-bezier(0.167,0,0.833,1); } 66.6666% { transform: translate(1277px,1126px) rotate(15deg) translate(-1277px,-1126px); animation-timing-function: cubic-bezier(0.333,0,0.667,1); } 83.3333% { transform: translate(1277px,1126px) rotate(0deg) translate(-1277px,-1126px); animation-timing-function: cubic-bezier(0.167,0,0.833,1); } 99.7166% { transform: translate(1277px,1126px) rotate(15deg) translate(-1277px,-1126px); } 100% { transform: translate(1277px,1126px) rotate(15deg) translate(-1277px,-1126px); } }
@keyframes head-3_mo { 0% { offset-distance: 0%; animation-timing-function: cubic-bezier(0.333,0,0.667,1); } 16.6667% { offset-distance: 16.666%; animation-timing-function: cubic-bezier(0.167,0,0.833,1); } 33.3333% { offset-distance: 33.333%; animation-timing-function: cubic-bezier(0.333,0,0.667,1); } 50% { offset-distance: 49.999%; animation-timing-function: cubic-bezier(0.167,0,0.833,1); } 66.6667% { offset-distance: 66.666%; animation-timing-function: cubic-bezier(0.333,0,0.667,1); } 83.3333% { offset-distance: 83.333%; animation-timing-function: cubic-bezier(0.167,0,0.833,1); } 99.7167% { offset-distance: 100%; } 100% { offset-distance: 100%; } }
@keyframes left-hand_t { 0% { transform: translate(1279px,1230px) rotate(-15deg) translate(-1279px,-1230px); animation-timing-function: cubic-bezier(0.333,0,0.667,1); } 16.6666% { transform: translate(1279px,1230px) rotate(0deg) translate(-1279px,-1230px); animation-timing-function: cubic-bezier(0.167,0,0.833,1); } 33.3333% { transform: translate(1279px,1230px) rotate(-15deg) translate(-1279px,-1230px); animation-timing-function: cubic-bezier(0.333,0,0.667,1); } 50% { transform: translate(1279px,1230px) rotate(0deg) translate(-1279px,-1230px); animation-timing-function: cubic-bezier(0.167,0,0.833,1); } 66.6666% { transform: translate(1279px,1230px) rotate(-15deg) translate(-1279px,-1230px); animation-timing-function: cubic-bezier(0.333,0,0.667,1); } 83.3333% { transform: translate(1279px,1230px) rotate(0deg) translate(-1279px,-1230px); animation-timing-function: cubic-bezier(0.167,0,0.833,1); } 99.7166% { transform: translate(1279px,1230px) rotate(-15deg) translate(-1279px,-1230px); } 100% { transform: translate(1279px,1230px) rotate(-15deg) translate(-1279px,-1230px); } }
@keyframes head-4_mo { 0% { offset-distance: 0%; animation-timing-function: cubic-bezier(0.333,0,0.667,1); } 16.6667% { offset-distance: 16.666%; animation-timing-function: cubic-bezier(0.167,0,0.833,1); } 33.3333% { offset-distance: 33.333%; animation-timing-function: cubic-bezier(0.333,0,0.667,1); } 50% { offset-distance: 49.999%; animation-timing-function: cubic-bezier(0.167,0,0.833,1); } 66.6667% { offset-distance: 66.666%; animation-timing-function: cubic-bezier(0.333,0,0.667,1); } 83.3333% { offset-distance: 83.333%; animation-timing-function: cubic-bezier(0.167,0,0.833,1); } 99.7167% { offset-distance: 100%; } 100% { offset-distance: 100%; } }
@keyframes head-5_mo { 0% { offset-distance: 0%; animation-timing-function: cubic-bezier(0.333,0,0.667,1); } 16.6667% { offset-distance: 16.666%; animation-timing-function: cubic-bezier(0.167,0,0.833,1); } 33.3333% { offset-distance: 33.333%; animation-timing-function: cubic-bezier(0.333,0,0.667,1); } 50% { offset-distance: 49.999%; animation-timing-function: cubic-bezier(0.167,0,0.833,1); } 66.6667% { offset-distance: 66.666%; animation-timing-function: cubic-bezier(0.333,0,0.667,1); } 83.3333% { offset-distance: 83.333%; animation-timing-function: cubic-bezier(0.167,0,0.833,1); } 99.7167% { offset-distance: 100%; } 100% { offset-distance: 100%; } }
@keyframes right-hand_t { 0% { transform: translate(1320px,1154px) rotate(-24deg) translate(-1320px,-1154px); animation-timing-function: cubic-bezier(0.333,0,0.667,1); } 16.6666% { transform: translate(1320px,1154px) rotate(0deg) translate(-1320px,-1154px); animation-timing-function: cubic-bezier(0.167,0,0.833,1); } 33.3333% { transform: translate(1320px,1154px) rotate(-24deg) translate(-1320px,-1154px); animation-timing-function: cubic-bezier(0.333,0,0.667,1); } 50% { transform: translate(1320px,1154px) rotate(0deg) translate(-1320px,-1154px); animation-timing-function: cubic-bezier(0.167,0,0.833,1); } 66.6666% { transform: translate(1320px,1154px) rotate(-24deg) translate(-1320px,-1154px); animation-timing-function: cubic-bezier(0.333,0,0.667,1); } 83.3333% { transform: translate(1320px,1154px) rotate(0deg) translate(-1320px,-1154px); animation-timing-function: cubic-bezier(0.167,0,0.833,1); } 99.7166% { transform: translate(1320px,1154px) rotate(-24deg) translate(-1320px,-1154px); } 100% { transform: translate(1320px,1154px) rotate(-24deg) translate(-1320px,-1154px); } }
@keyframes head-6_mo { 0% { offset-distance: 0%; animation-timing-function: cubic-bezier(0.333,0,0.667,1); } 16.6667% { offset-distance: 16.666%; animation-timing-function: cubic-bezier(0.167,0,0.833,1); } 33.3333% { offset-distance: 33.333%; animation-timing-function: cubic-bezier(0.333,0,0.667,1); } 50% { offset-distance: 49.999%; animation-timing-function: cubic-bezier(0.167,0,0.833,1); } 66.6667% { offset-distance: 66.666%; animation-timing-function: cubic-bezier(0.333,0,0.667,1); } 83.3333% { offset-distance: 83.333%; animation-timing-function: cubic-bezier(0.167,0,0.833,1); } 99.7167% { offset-distance: 100%; } 100% { offset-distance: 100%; } }
@keyframes mounth_mo { 0% { offset-distance: 0%; animation-timing-function: cubic-bezier(0.333,0,0.667,1); } 16.6667% { offset-distance: 16.666%; animation-timing-function: cubic-bezier(0.333,0,0.667,1); } 33.3333% { offset-distance: 33.333%; animation-timing-function: cubic-bezier(0.333,0,0.667,1); } 50% { offset-distance: 49.999%; animation-timing-function: cubic-bezier(0.333,0,0.667,1); } 66.6667% { offset-distance: 66.666%; animation-timing-function: cubic-bezier(0.333,0,0.667,1); } 83.3333% { offset-distance: 83.333%; animation-timing-function: cubic-bezier(0.333,0,0.667,1); } 99.7167% { offset-distance: 100%; } 100% { offset-distance: 100%; } }
@keyframes head-7_mo { 0% { offset-distance: 0%; animation-timing-function: cubic-bezier(0.333,0,0.667,1); } 16.6667% { offset-distance: 16.666%; animation-timing-function: cubic-bezier(0.167,0,0.833,1); } 33.3333% { offset-distance: 33.333%; animation-timing-function: cubic-bezier(0.333,0,0.667,1); } 50% { offset-distance: 49.999%; animation-timing-function: cubic-bezier(0.167,0,0.833,1); } 66.6667% { offset-distance: 66.666%; animation-timing-function: cubic-bezier(0.333,0,0.667,1); } 83.3333% { offset-distance: 83.333%; animation-timing-function: cubic-bezier(0.167,0,0.833,1); } 99.7167% { offset-distance: 100%; } 100% { offset-distance: 100%; } }
@keyframes arrow_t { 0% { transform: translate(454.5px,717px) rotate(0deg) translate(-460.5px,-649px); } 99.7166% { transform: translate(454.5px,717px) rotate(720deg) translate(-460.5px,-649px); } 100% { transform: translate(454.5px,717px) rotate(720deg) translate(-460.5px,-649px); } }
@keyframes dot-3_mo { 0% { offset-distance: 0%; } 20.15% { offset-distance: 0%; animation-timing-function: cubic-bezier(0.333,0,0.667,1); } 29.7333% { offset-distance: 16.666%; animation-timing-function: cubic-bezier(0.333,0,0.667,1); } 39.65% { offset-distance: 33.333%; } 49.8833% { offset-distance: 33.333%; animation-timing-function: cubic-bezier(0.333,0,0.667,1); } 59.4667% { offset-distance: 49.999%; animation-timing-function: cubic-bezier(0.333,0,0.667,1); } 69.3833% { offset-distance: 66.666%; } 79.95% { offset-distance: 66.666%; animation-timing-function: cubic-bezier(0.333,0,0.667,1); } 89.5333% { offset-distance: 83.333%; animation-timing-function: cubic-bezier(0.333,0,0.667,1); } 99.45% { offset-distance: 100%; } 100% { offset-distance: 100%; } }
@keyframes dot-2_mo { 0% { offset-distance: 0%; } 10.25% { offset-distance: 0%; animation-timing-function: cubic-bezier(0.333,0,0.667,1); } 20.15% { offset-distance: 16.666%; animation-timing-function: cubic-bezier(0.333,0,0.667,1); } 29.7333% { offset-distance: 33.333%; } 39.9833% { offset-distance: 33.333%; animation-timing-function: cubic-bezier(0.333,0,0.667,1); } 49.8833% { offset-distance: 50%; animation-timing-function: cubic-bezier(0.333,0,0.667,1); } 59.8% { offset-distance: 66.666%; } 70.0333% { offset-distance: 66.666%; animation-timing-function: cubic-bezier(0.333,0,0.667,1); } 79.95% { offset-distance: 83.333%; animation-timing-function: cubic-bezier(0.333,0,0.667,1); } 89.5333% { offset-distance: 100%; } 100% { offset-distance: 100%; } }
@keyframes dot-1_mo { 0% { offset-distance: 0%; animation-timing-function: cubic-bezier(0.333,0,0.667,1); } 10.25% { offset-distance: 16.666%; animation-timing-function: cubic-bezier(0.333,0,0.667,1); } 20.15% { offset-distance: 33.333%; } 29.7333% { offset-distance: 33.333%; animation-timing-function: cubic-bezier(0.333,0,0.667,1); } 39.9833% { offset-distance: 49.999%; animation-timing-function: cubic-bezier(0.333,0,0.667,1); } 49.8833% { offset-distance: 66.666%; } 59.8% { offset-distance: 66.666%; animation-timing-function: cubic-bezier(0.333,0,0.667,1); } 70.0333% { offset-distance: 83.333%; animation-timing-function: cubic-bezier(0.333,0,0.667,1); } 79.95% { offset-distance: 100%; } 100% { offset-distance: 100%; } }
@keyframes star-1_t { 0% { transform: rotate(0deg) translate(-696px,-499px); animation-timing-function: cubic-bezier(0.333,0,0.667,1); } 24.7166% { transform: rotate(360deg) translate(-696px,-499px); } 100% { transform: rotate(360deg) translate(-696px,-499px); } }
@keyframes star-1_v { 0% { visibility: visible; animation-timing-function: steps(1); } 25% { visibility: hidden; animation-timing-function: steps(1); } 100% { visibility: hidden; animation-timing-function: steps(1); } }
@keyframes star-1_mo { 0% { offset-distance: 0%; animation-timing-function: cubic-bezier(0.333,0,0.667,1); } 24.7167% { offset-distance: 100%; } 100% { offset-distance: 100%; } }
@keyframes Group-1-13_o { 0% { opacity: 1; } 19.45% { opacity: 1; animation-timing-function: cubic-bezier(0.333,0,0.667,1); } 24.7167% { opacity: 0; } 100% { opacity: 0; } }
@keyframes star-2_t { 0% { transform: translate(949px,962px) rotate(0deg) translate(-802px,-395px); } 8.3333% { transform: translate(949px,962px) rotate(0deg) translate(-802px,-395px); animation-timing-function: cubic-bezier(0.333,0,0.667,1); } 33.05% { transform: translate(830px,325px) rotate(360deg) translate(-802px,-395px); } 100% { transform: translate(830px,325px) rotate(360deg) translate(-802px,-395px); } }
@keyframes star-2_v { 0% { visibility: hidden; animation-timing-function: steps(1); } 8.3333% { visibility: visible; animation-timing-function: steps(1); } 34.1667% { visibility: hidden; animation-timing-function: steps(1); } 100% { visibility: hidden; animation-timing-function: steps(1); } }
@keyframes Group-1-14_o { 0% { opacity: 1; } 27.7833% { opacity: 1; animation-timing-function: cubic-bezier(0.333,0,0.667,1); } 33.05% { opacity: 0; } 100% { opacity: 0; } }
@keyframes star-3_t { 0% { transform: translate(923px,930px) rotate(0deg) translate(-696px,-499px); } 32.7833% { transform: translate(923px,930px) rotate(0deg) translate(-696px,-499px); animation-timing-function: cubic-bezier(0.333,0,0.667,1); } 57.4999% { transform: translate(589px,524px) rotate(360deg) translate(-696px,-499px); } 100% { transform: translate(589px,524px) rotate(360deg) translate(-696px,-499px); } }
@keyframes star-3_v { 0% { visibility: hidden; animation-timing-function: steps(1); } 32.7833% { visibility: visible; animation-timing-function: steps(1); } 57.7833% { visibility: hidden; animation-timing-function: steps(1); } 100% { visibility: hidden; animation-timing-function: steps(1); } }
@keyframes Group-1-15_o { 0% { opacity: 1; } 52.2167% { opacity: 1; animation-timing-function: cubic-bezier(0.333,0,0.667,1); } 57.5% { opacity: 0; } 100% { opacity: 0; } }
@keyframes star-4_t { 0% { transform: translate(949px,962px) rotate(0deg) translate(-802px,-395px); } 41.1166% { transform: translate(949px,962px) rotate(0deg) translate(-802px,-395px); animation-timing-function: cubic-bezier(0.333,0,0.667,1); } 65.8333% { transform: translate(830px,325px) rotate(360deg) translate(-802px,-395px); } 100% { transform: translate(830px,325px) rotate(360deg) translate(-802px,-395px); } }
@keyframes star-4_v { 0% { visibility: hidden; animation-timing-function: steps(1); } 41.1167% { visibility: visible; animation-timing-function: steps(1); } 66.95% { visibility: hidden; animation-timing-function: steps(1); } 100% { visibility: hidden; animation-timing-function: steps(1); } }
@keyframes Group-1-16_o { 0% { opacity: 1; } 60.55% { opacity: 1; animation-timing-function: cubic-bezier(0.333,0,0.667,1); } 65.8333% { opacity: 0; } 100% { opacity: 0; } }
@keyframes star-5_t { 0% { transform: translate(923px,930px) rotate(0deg) translate(-696px,-499px); } 65.8333% { transform: translate(923px,930px) rotate(0deg) translate(-696px,-499px); animation-timing-function: cubic-bezier(0.333,0,0.667,1); } 90.55% { transform: translate(589px,524px) rotate(360deg) translate(-696px,-499px); } 100% { transform: translate(589px,524px) rotate(360deg) translate(-696px,-499px); } }
@keyframes star-5_v { 0% { visibility: hidden; animation-timing-function: steps(1); } 65.8333% { visibility: visible; animation-timing-function: steps(1); } 90.8333% { visibility: hidden; animation-timing-function: steps(1); } 100% { visibility: hidden; animation-timing-function: steps(1); } }
@keyframes Group-1-17_o { 0% { opacity: 1; } 85.2833% { opacity: 1; animation-timing-function: cubic-bezier(0.333,0,0.667,1); } 90.55% { opacity: 0; } 100% { opacity: 0; } }
@keyframes star-6_t { 0% { transform: translate(949px,962px) rotate(0deg) translate(-802px,-395px); } 74.1666% { transform: translate(949px,962px) rotate(0deg) translate(-802px,-395px); animation-timing-function: cubic-bezier(0.333,0,0.667,1); } 98.8833% { transform: translate(830px,325px) rotate(360deg) translate(-802px,-395px); } 100% { transform: translate(830px,325px) rotate(360deg) translate(-802px,-395px); } }
@keyframes star-6_v { 0% { visibility: hidden; animation-timing-function: steps(1); } 74.1667% { visibility: visible; animation-timing-function: steps(1); } 100% { visibility: hidden; animation-timing-function: steps(1); } }
@keyframes Group-1-18_o { 0% { opacity: 1; } 93.6167% { opacity: 1; animation-timing-function: cubic-bezier(0.333,0,0.667,1); } 98.8833% { opacity: 0; } 100% { opacity: 0; } }
    </style>
    <g id="head" style="transform: translate(-894px,-964px); animation: 6s linear infinite both head_mo; offset-path: path('M1108,1090C1090,1075,1000,1000,1000,1000C1000,1000,1108,1090,1108,1090C1108,1090,1000,1000,1000,1000C1000,1000,1108,1090,1108,1090C1108,1090,1000,1000,1000,1000C1000,1000,1090,1075,1108,1090L1108,1090'); offset-rotate: 0deg;">
        <g id="right-leg" transform="translate(1111,1227) rotate(15) translate(-1111,-1227)" style="animation: 6s linear infinite both right-leg_t;">
            <g id="Group-1" opacity="1" transform="translate(1254.4,1407.74)">
                <path id="Path-1" fill="#000000" d="M153.635,211.985C139.922,211.985,126.878,203.946,121.162,190.536C121.162,190.536,98.784,138.051,98.784,138.051C52.717,144.031,-36.433,146.614,-100.16,92.513C-187.882,18.024,-193.721,-112.244,-176.25,-181.626C-171.488,-200.521,-152.309,-211.986,-133.415,-207.229C-114.514,-202.468,-103.055,-183.286,-107.811,-164.392C-121.411,-110.404,-113.856,-11.699,-54.481,38.719C5.303,89.488,110.744,64.473,111.807,64.214C128.587,60.111,145.95,68.744,152.723,84.63C152.723,84.63,186.074,162.85,186.074,162.85C193.721,180.78,185.385,201.508,167.46,209.149C162.942,211.074,158.25,211.985,153.635,211.985Z" fill-opacity="1" fill-rule="nonzero"/>
            </g>
        </g>
    </g>
    <g id="head-2" style="transform: translate(-894px,-964px); animation: 6s linear infinite both head-2_mo; offset-path: path('M1108,1090C1090,1075,1000,1000,1000,1000C1000,1000,1108,1090,1108,1090C1108,1090,1000,1000,1000,1000C1000,1000,1108,1090,1108,1090C1108,1090,1000,1000,1000,1000C1000,1000,1090,1075,1108,1090L1108,1090'); offset-rotate: 0deg;">
        <g id="left-leg" transform="translate(1277,1126) rotate(15) translate(-1277,-1126)" style="animation: 6s linear infinite both left-leg_t;">
            <g id="Group-1-2" opacity="1" transform="translate(1436.51,1313.1)">
                <path id="Path-1-2" fill="#000000" d="M208.548,219.992C198.691,219.992,188.887,215.884,181.909,207.865C181.909,207.865,148.397,169.347,148.397,169.347C90.44,169.984,-82.604,165.326,-156.938,91.688C-247.944,1.459,-226.315,-130.238,-189.572,-196.741C-180.146,-213.798,-158.685,-219.993,-141.624,-210.568C-124.562,-201.142,-118.378,-179.675,-127.798,-162.619C-153.169,-116.698,-170.025,-20.666,-107.264,41.56C-53.653,94.67,105.846,100.666,162.777,98.428C173.417,98.072,183.759,102.467,190.77,110.528C190.77,110.528,235.153,161.545,235.153,161.545C247.944,176.25,246.397,198.536,231.692,211.327C225.011,217.139,216.76,219.992,208.548,219.992Z" fill-opacity="1" fill-rule="nonzero"/>
            </g>
        </g>
    </g>
    <g id="head-3" style="transform: translate(-894px,-964px); animation: 6s linear infinite both head-3_mo; offset-path: path('M1108,1090C1090,1075,1000,1000,1000,1000C1000,1000,1108,1090,1108,1090C1108,1090,1000,1000,1000,1000C1000,1000,1108,1090,1108,1090C1108,1090,1000,1000,1000,1000C1000,1000,1090,1075,1108,1090L1108,1090'); offset-rotate: 0deg;">
        <g id="left-hand" transform="translate(1279,1230) rotate(-15) translate(-1279,-1230)" style="animation: 6s linear infinite both left-hand_t;">
            <g id="Group-1-3" opacity="1" transform="translate(1385.73,1282.59)">
                <path id="Path-1-3" fill="#000000" d="M107.701,92.193C105.268,92.193,102.805,91.939,100.329,91.417C96.856,90.677,14.737,73.023,-34.468,46.18C-76.495,23.263,-128.898,-25.171,-131.109,-27.22C-145.388,-40.469,-146.223,-62.783,-132.98,-77.061C-119.736,-91.345,-97.417,-92.192,-83.133,-78.949C-69.841,-66.627,-29.113,-31.259,-0.685,-15.756C32.618,2.411,94.129,17.957,115.018,22.411C134.063,26.471,146.223,45.21,142.163,64.26C138.631,80.837,123.996,92.193,107.701,92.193Z" fill-opacity="1" fill-rule="nonzero"/>
            </g>
        </g>
    </g>
    <g id="head-4" style="transform: translate(-894px,-964px); animation: 6s linear infinite both head-4_mo; offset-path: path('M1108,1090C1090,1075,1000,1000,1000,1000C1000,1000,1108,1090,1108,1090C1108,1090,1000,1000,1000,1000C1000,1000,1108,1090,1108,1090C1108,1090,1000,1000,1000,1000C1000,1000,1090,1075,1108,1090L1108,1090'); offset-rotate: 0deg;">
        <g id="Group-3" opacity="1" transform="translate(1041.24,989.102)">
            <path id="Path-1-4" fill="#facc15" d="M-128.195,-465.723C-70.438,-463.693,-14.418,-432.292,17.804,-383.885C54.196,-429.185,112.996,-455.415,170.667,-452.231C228.338,-449.046,283.75,-416.5,314.93,-367.425C346.11,-318.342,352.451,-253.987,327.871,-198.352C388.408,-187.715,443.039,-147.013,470.745,-91.699C498.625,-36.386,498.972,32.194,471.787,87.856C444.602,143.516,390.406,184.964,330.13,195.957C348.282,244.521,347.587,298.255,327.958,346.28C308.329,394.297,269.94,432.396,221.562,450.165C173.794,467.744,132.712,463.858,91.109,450.955C49.593,438.053,15.98,409.159,-16.242,367.945C-52.026,406.088,-87.983,431.841,-130.541,440.943C-173.099,450.053,-214.355,450.218,-260.387,428.404C-306.941,406.349,-341.682,364.952,-356.968,315.357C-372.167,265.761,-367.998,212.183,-345.503,165.459C-404.564,149.077,-454.852,102.909,-476.826,45.027C-498.973,-12.854,-492.286,-81.122,-459.629,-133.702C-426.972,-186.292,-368.953,-221.91,-307.721,-227.046C-327.176,-284.667,-315.018,-348.189,-279.495,-394.262C-243.972,-440.327,-185.953,-467.744,-128.195,-465.723Z" fill-opacity="1" fill-rule="nonzero"/>
        </g>
        <g id="Group-2" opacity="1" transform="translate(758.4,1076.66)">
            <path id="Path-1-5" fill="#ffffff" d="M1.566,-34.661C-17.596,-35.527,-33.831,-20.711,-34.696,-1.568C-35.561,17.574,-20.729,33.795,-1.567,34.661C17.595,35.527,33.83,20.711,34.695,1.568C35.561,-17.575,20.728,-33.795,1.566,-34.661Z" fill-opacity="1" fill-rule="nonzero"/>
        </g>
        <g id="Group-1-4" opacity="1" transform="translate(1210.3,1097.06)">
            <path id="Path-1-6" fill="#ffffff" d="M1.564,-34.661C-17.598,-35.527,-33.833,-20.711,-34.699,-1.568C-35.563,17.574,-20.731,33.794,-1.569,34.66C17.593,35.527,33.829,20.71,34.694,1.568C35.558,-17.575,20.726,-33.796,1.564,-34.661Z" fill-opacity="1" fill-rule="nonzero"/>
        </g>
    </g>
    <g id="head-5" style="transform: translate(-894px,-964px); animation: 6s linear infinite both head-5_mo; offset-path: path('M1108,1090C1090,1075,1000,1000,1000,1000C1000,1000,1108,1090,1108,1090C1108,1090,1000,1000,1000,1000C1000,1000,1108,1090,1108,1090C1108,1090,1000,1000,1000,1000C1000,1000,1090,1075,1108,1090L1108,1090'); offset-rotate: 0deg;">
        <g id="right-hand" transform="translate(1320,1154) rotate(-24) translate(-1320,-1154)" style="animation: 6s linear infinite both right-hand_t;">
            <g id="Group-1-5" opacity="1" transform="translate(1438.24,1204.43)">
                <path id="Path-1-7" fill="#000000" d="M113.568,81.944C112.242,81.944,110.899,81.869,109.546,81.717C106.024,81.319,22.632,71.667,-28.935,49.693C-72.936,30.938,-129.852,-12.172,-132.257,-14C-147.76,-25.788,-150.769,-47.913,-138.981,-63.422C-127.199,-78.936,-105.069,-81.944,-89.561,-70.161C-75.104,-59.183,-31.065,-27.902,-1.272,-15.208C33.622,-0.336,96.301,9.203,117.515,11.619C136.863,13.83,150.769,31.305,148.569,50.652C146.52,68.658,131.265,81.944,113.568,81.944Z" fill-opacity="1" fill-rule="nonzero"/>
            </g>
        </g>
    </g>
    <g id="head-6" style="transform: translate(-894px,-964px); animation: 6s linear infinite both head-6_mo; offset-path: path('M1108,1090C1090,1075,1000,1000,1000,1000C1000,1000,1108,1090,1108,1090C1108,1090,1000,1000,1000,1000C1000,1000,1108,1090,1108,1090C1108,1090,1000,1000,1000,1000C1000,1000,1090,1075,1108,1090L1108,1090'); offset-rotate: 0deg;">
        <g id="mounth" style="transform: translate(-976px,-1124px); animation: 6s linear infinite both mounth_mo; offset-path: path('M976,1124C974.833,1130.5,969,1163,969,1163C969,1163,976,1124,976,1124C976,1124,969,1163,969,1163C969,1163,976,1124,976,1124C976,1124,969,1163,969,1163C969,1163,974.833,1130.5,976,1124L976,1124'); offset-rotate: 0deg;">
            <g id="Group-1-6" opacity="1" transform="translate(984.21,1101.76)">
                <path id="Path-1-8" fill="#000000" d="M1.245,40.99C0.054,40.99,-1.158,40.962,-2.396,40.908C-46.64,38.919,-64.925,1.874,-63.777,-23.793C-63.342,-33.531,-54.989,-40.99,-45.364,-40.635C-35.629,-40.198,-28.09,-31.952,-28.527,-22.219C-28.538,-21.949,-28.928,4.392,-0.805,5.654C9.26,6.129,16.863,3.156,22.336,-3.373C27.124,-9.1,29.094,-16.207,29.24,-19.594C29.67,-29.322,37.775,-36.902,47.648,-36.439C57.381,-36.007,64.925,-27.763,64.495,-18.03C64.057,-8.195,59.856,6.776,49.384,19.28C40.972,29.332,25.891,40.99,1.245,40.99Z" fill-opacity="1" fill-rule="nonzero"/>
            </g>
        </g>
    </g>
    <g id="head-7" style="transform: translate(-894px,-964px); animation: 6s linear infinite both head-7_mo; offset-path: path('M1108,1090C1090,1075,1000,1000,1000,1000C1000,1000,1108,1090,1108,1090C1108,1090,1000,1000,1000,1000C1000,1000,1108,1090,1108,1090C1108,1090,1000,1000,1000,1000C1000,1000,1090,1075,1108,1090L1108,1090'); offset-rotate: 0deg;">
        <g id="eye" transform="translate(1000,1000) translate(-1000,-1000)">
            <g id="Group-2-2" opacity="1" transform="translate(884.383,998.748)">
                <path id="Path-1-9" fill="#000000" d="M-0.479,49.833C-1.679,49.833,-2.884,49.806,-4.094,49.752C-45.378,47.887,-78.257,14.433,-82.277,-29.795C-83.159,-39.496,-76.006,-48.081,-66.303,-48.962C-56.643,-49.833,-48.018,-42.694,-47.136,-32.988C-45.138,-10.998,-30.317,13.246,-2.506,14.497C25.52,15.985,42.598,-6.867,46.674,-28.42C48.489,-37.992,57.72,-44.301,67.292,-42.478C76.866,-40.666,83.159,-31.435,81.347,-21.863C73.382,20.219,39.29,49.833,-0.479,49.833Z" fill-opacity="1" fill-rule="nonzero"/>
            </g>
            <g id="Group-1-7" opacity="1" transform="translate(1095.38,1008.45)">
                <path id="Path-1-10" fill="#000000" d="M0.009,49.677C-1.194,49.677,-2.396,49.65,-3.609,49.596C-45.486,47.708,-77.807,15.231,-82.208,-29.396C-83.162,-39.092,-76.078,-47.73,-66.383,-48.684C-56.671,-49.677,-48.049,-42.553,-47.094,-32.858C-44.937,-11.003,-29.914,13.09,-2.019,14.341C25.907,15.754,42.769,-7.19,46.705,-28.9C48.442,-38.493,57.637,-44.872,67.208,-43.114C76.795,-41.378,83.163,-32.2,81.422,-22.613C73.738,19.82,39.815,49.677,0.009,49.677Z" fill-opacity="1" fill-rule="nonzero"/>
            </g>
        </g>
    </g>
    <g id="arrow" transform="translate(454.5,717) translate(-460.5,-649)" style="animation: 6s linear infinite both arrow_t;">
        <g id="Group-6" opacity="1" transform="translate(379.445,628.731)">
            <path id="Path-1-11" fill="#e9edf3" d="M-37.428,-38.516C-37.428,-38.516,-12.829,-52.15,-12.829,-52.15C-1.311,-58.535,3.529,-59.651,8.988,-59.733C14.447,-59.815,19.583,-58.343,24.169,-55.381C28.755,-52.418,32.269,-48.906,38.654,-37.388C38.654,-37.388,52.19,-12.968,52.19,-12.968C58.574,-1.45,59.69,3.392,59.773,8.85C59.855,14.309,58.382,19.446,55.419,24.032C52.457,28.618,48.945,32.131,37.427,38.515C37.427,38.515,12.828,52.152,12.828,52.152C1.311,58.536,-3.531,59.651,-8.99,59.733C-14.449,59.815,-19.585,58.343,-24.171,55.381C-28.757,52.419,-32.271,48.905,-38.655,37.388C-38.655,37.388,-52.191,12.968,-52.191,12.968C-58.575,1.45,-59.691,-3.391,-59.773,-8.85C-59.855,-14.309,-58.383,-19.446,-55.421,-24.032C-52.458,-28.618,-48.946,-32.132,-37.428,-38.516Z" fill-opacity="1" fill-rule="nonzero"/>
        </g>
        <g id="Group-5" opacity="1" transform="translate(483.268,571.181)">
            <path id="Path-1-12" fill="#e9edf3" d="M-37.428,-38.516C-37.428,-38.516,-12.829,-52.15,-12.829,-52.15C-1.311,-58.535,3.529,-59.651,8.988,-59.733C14.447,-59.815,19.583,-58.343,24.169,-55.381C28.755,-52.418,32.269,-48.905,38.654,-37.388C38.654,-37.388,52.19,-12.967,52.19,-12.967C58.574,-1.45,59.691,3.392,59.773,8.851C59.855,14.31,58.382,19.446,55.419,24.032C52.457,28.618,48.945,32.131,37.427,38.515C37.427,38.515,12.828,52.152,12.828,52.152C1.311,58.536,-3.531,59.651,-8.99,59.733C-14.449,59.815,-19.585,58.343,-24.171,55.381C-28.757,52.419,-32.271,48.906,-38.655,37.388C-38.655,37.388,-52.191,12.968,-52.191,12.968C-58.575,1.45,-59.691,-3.391,-59.773,-8.85C-59.855,-14.309,-58.383,-19.445,-55.421,-24.03C-52.458,-28.616,-48.946,-32.132,-37.428,-38.516Z" fill-opacity="1" fill-rule="nonzero"/>
        </g>
        <g id="Group-4" opacity="1" transform="translate(436.882,732.351)">
            <path id="Path-1-13" fill="#e9edf3" d="M-37.428,-38.516C-37.428,-38.516,-12.829,-52.15,-12.829,-52.15C-1.311,-58.535,3.529,-59.651,8.988,-59.733C14.447,-59.815,19.583,-58.343,24.169,-55.381C28.755,-52.418,32.269,-48.906,38.654,-37.388C38.654,-37.388,52.19,-12.968,52.19,-12.968C58.574,-1.45,59.69,3.392,59.773,8.85C59.855,14.309,58.382,19.446,55.419,24.032C52.457,28.618,48.945,32.131,37.427,38.515C37.427,38.515,12.828,52.152,12.828,52.152C1.311,58.536,-3.531,59.651,-8.99,59.733C-14.449,59.815,-19.585,58.343,-24.171,55.381C-28.757,52.419,-32.271,48.906,-38.655,37.388C-38.655,37.388,-52.191,12.968,-52.191,12.968C-58.575,1.45,-59.691,-3.391,-59.773,-8.85C-59.855,-14.309,-58.383,-19.446,-55.421,-24.032C-52.458,-28.618,-48.946,-32.132,-37.428,-38.516Z" fill-opacity="1" fill-rule="nonzero"/>
        </g>
        <g id="Group-3-2" opacity="1" transform="translate(502.101,663.772)">
            <path id="Path-1-14" fill="#e9edf3" d="M-11.379,-20.529C-0.019,-26.826,14.284,-22.738,20.569,-11.401C26.853,-0.064,22.739,14.232,11.379,20.529C0.019,26.826,-14.284,22.74,-20.569,11.402C-26.853,0.064,-22.739,-14.232,-11.379,-20.529Z" fill-opacity="1" fill-rule="nonzero"/>
        </g>
        <g id="Group-2-3" opacity="1" transform="translate(551.809,636.219)">
            <path id="Path-1-15" fill="#e9edf3" d="M-11.379,-20.529C-0.019,-26.826,14.285,-22.739,20.569,-11.402C26.853,-0.064,22.739,14.232,11.379,20.529C0.019,26.826,-14.284,22.739,-20.568,11.402C-26.853,0.064,-22.738,-14.232,-11.379,-20.529Z" fill-opacity="1" fill-rule="nonzero"/>
        </g>
        <g id="Group-1-8" opacity="1" transform="translate(529.6,713.383)">
            <path id="Path-1-16" fill="#e9edf3" d="M-11.379,-20.529C-0.019,-26.826,14.285,-22.739,20.569,-11.401C26.853,-0.064,22.739,14.232,11.379,20.529C0.019,26.826,-14.284,22.739,-20.568,11.402C-26.853,0.064,-22.739,-14.232,-11.379,-20.529Z" fill-opacity="1" fill-rule="nonzero"/>
        </g>
    </g>
    <g id="chat" transform="translate(1142,394.25) rotate(-15) translate(-1142,-394.25)">
        <g id="Group-1-9" opacity="1" transform="translate(1143.12,394.845)">
            <path id="Path-1-17" fill="#e9edf3" d="M-57.195,-92.442C-57.195,-92.442,88.47,-63.307,88.47,-63.307C131.452,-54.71,159.327,-12.895,150.73,30.087C150.726,30.107,150.722,30.126,150.718,30.146C142.08,73.164,100.22,101.047,57.195,92.442C57.195,92.442,-88.469,63.307,-88.469,63.307C-131.452,54.709,-159.327,12.895,-150.73,-30.088C-150.726,-30.107,-150.721,-30.126,-150.717,-30.146C-142.08,-73.164,-100.219,-101.047,-57.195,-92.442Z" fill-opacity="1" fill-rule="nonzero"/>
        </g>
    </g>
    <g id="chat-2" transform="translate(1142,394.25) rotate(-15) translate(-1142,-394.25)">
        <g id="dot-3" style="transform: translate(-1000px,-1000px); animation: 6s linear infinite both dot-3_mo; offset-path: path('M1000,999L1000,999L1009,968.25C1009,968.25,1001.5,993.875,1000,999C1000,999,1000,999,1000,999C1001.5,993.875,1009,968.25,1009,968.25C1009,968.25,1001.5,993.875,1000,999C1000,999,1000,999,1000,999C1001.5,993.875,1009,968.25,1009,968.25C1009,968.25,1001.5,993.875,1000,999L1000,999'); offset-rotate: 0deg;">
            <g id="Group-1-10" opacity="1" transform="translate(1213.41,408.898)">
                <path id="Path-1-18" fill="#ffffff" d="M4.932,-24.61C17.784,-22.034,25.993,-8.928,23.269,4.663C20.545,18.255,7.919,27.185,-4.932,24.61C-17.783,22.034,-25.993,8.928,-23.269,-4.664C-20.545,-18.255,-7.919,-27.185,4.932,-24.61Z" fill-opacity="1" fill-rule="nonzero"/>
            </g>
        </g>
    </g>
    <g id="chat-3" transform="translate(1142,394.25) rotate(-15) translate(-1142,-394.25)">
        <g id="dot-2" style="transform: translate(-1000px,-1000px); animation: 6s linear infinite both dot-2_mo; offset-path: path('M1000,1000L1000,1000L1008,973C1008,973,1001.33,995.5,1000,1000C1000,1000,1000,1000,1000,1000C1001.33,995.5,1008,973,1008,973C1008,973,1001.33,995.5,1000,1000C1000,1000,1000,1000,1000,1000C1001.33,995.5,1008,973,1008,973C1008,973,1001.33,995.5,1000,1000L1000,1000'); offset-rotate: 0deg;">
            <g id="Group-1-11" opacity="1" transform="translate(1143.1,394.836)">
                <path id="Path-1-19" fill="#ffffff" d="M4.932,-24.61C17.783,-22.035,25.993,-8.927,23.269,4.664C20.544,18.256,7.918,27.186,-4.932,24.61C-17.784,22.035,-25.993,8.928,-23.269,-4.664C-20.546,-18.255,-7.92,-27.186,4.932,-24.61Z" fill-opacity="1" fill-rule="nonzero"/>
            </g>
        </g>
    </g>
    <g id="chat-4" transform="translate(1142,394.25) rotate(-15) translate(-1142,-394.25)">
        <g id="dot-1" style="transform: translate(-1000px,-1000px); animation: 6s linear infinite both dot-1_mo; offset-path: path('M1000,1000C1001.75,993.5,1010.5,961,1010.5,961C1010.5,961,1001.75,993.5,1000,1000C1000,1000,1000,1000,1000,1000C1001.75,993.5,1010.5,961,1010.5,961C1010.5,961,1001.75,993.5,1000,1000C1000,1000,1000,1000,1000,1000C1001.75,993.5,1010.5,961,1010.5,961C1010.5,961,1001.75,993.5,1000,1000L1000,1000'); offset-rotate: 0deg;">
            <g id="Group-1-12" opacity="1" transform="translate(1072.79,380.774)">
                <path id="Path-1-20" fill="#ffffff" d="M4.932,-24.61C17.784,-22.035,25.994,-8.928,23.269,4.664C20.545,18.255,7.919,27.186,-4.931,24.61C-17.783,22.035,-25.993,8.928,-23.268,-4.664C-20.545,-18.256,-7.919,-27.186,4.932,-24.61Z" fill-opacity="1" fill-rule="nonzero"/>
            </g>
        </g>
    </g>
    <g id="star-1" visibility="visible" style="transform: translate(-696px,-499px); animation: 6s linear infinite both star-1_t, 6s linear infinite forwards star-1_v, 6s linear infinite both star-1_mo; offset-path: path('M923,930C887,674.333,689,529.667,589,524L589,524'); offset-rotate: 0deg;">
        <g id="Group-1-13" opacity="1" transform="translate(696.418,500.763)" style="animation: 6s linear infinite both Group-1-13_o;">
            <path id="Path-1-21" fill="#facc15" d="M-19.153,-24.002C-19.4,-29.233,-13.435,-32.398,-9.252,-29.256C-9.252,-29.256,-0.147,-22.466,-0.147,-22.466C6.124,-17.053,16.487,-18.791,24.038,-19.096C29.293,-19.357,32.46,-13.413,29.305,-9.211C29.305,-9.211,22.505,-0.138,22.505,-0.138C19.735,3.551,18.357,8.087,18.58,12.685C18.58,12.685,19.128,24.015,19.128,24.015C19.4,29.233,13.435,32.398,9.227,29.269C9.227,29.269,0.147,22.466,0.147,22.466C-6.124,17.052,-16.511,18.804,-24.063,19.109C-29.293,19.357,-32.46,13.413,-29.329,9.224C-29.329,9.224,-22.529,0.15,-22.529,0.15C-17.088,-6.116,-18.84,-16.469,-19.153,-24.002Z" fill-opacity="1" fill-rule="nonzero"/>
        </g>
    </g>
    <g id="star-2" visibility="hidden" transform="translate(949,962) translate(-802,-395)" style="animation: 6s linear infinite both star-2_t, 6s linear infinite forwards star-2_v;">
        <g id="Group-1-14" opacity="1" transform="translate(802.691,394.729)" style="animation: 6s linear infinite both Group-1-14_o;">
            <path id="Path-1-22" fill="#facc15" d="M2.668,-43.966C7.439,-49.783,16.849,-47.441,18.287,-40.078C18.287,-40.078,21.465,-24.108,21.465,-24.108C22.944,-12.321,35.672,-4.241,44.022,2.673C49.879,7.431,47.536,16.809,40.126,18.266C40.126,18.266,24.14,21.427,24.14,21.427C17.635,22.705,11.8,26.225,7.613,31.344C7.613,31.344,-2.707,43.955,-2.707,43.955C-7.439,49.782,-16.849,47.44,-18.326,40.068C-18.326,40.068,-21.465,24.107,-21.465,24.107C-22.945,12.32,-35.711,4.231,-44.061,-2.683C-49.879,-7.431,-47.536,-16.809,-40.165,-18.276C-40.165,-18.276,-24.179,-21.438,-24.179,-21.438C-12.342,-22.906,-4.248,-35.631,2.668,-43.966Z" fill-opacity="1" fill-rule="nonzero"/>
        </g>
    </g>
    <g id="star-3" visibility="hidden" transform="translate(923,930) translate(-696,-499)" style="animation: 6s linear infinite both star-3_t, 6s linear infinite forwards star-3_v;">
        <g id="Group-1-15" opacity="1" transform="translate(696.418,500.763)" style="animation: 6s linear infinite both Group-1-15_o;">
            <path id="Path-1-23" fill="#facc15" d="M-19.153,-24.002C-19.4,-29.233,-13.435,-32.398,-9.252,-29.256C-9.252,-29.256,-0.147,-22.466,-0.147,-22.466C6.124,-17.053,16.487,-18.791,24.038,-19.096C29.293,-19.357,32.46,-13.413,29.305,-9.211C29.305,-9.211,22.505,-0.138,22.505,-0.138C19.735,3.551,18.357,8.087,18.58,12.685C18.58,12.685,19.128,24.015,19.128,24.015C19.4,29.233,13.435,32.398,9.227,29.269C9.227,29.269,0.147,22.466,0.147,22.466C-6.124,17.052,-16.511,18.804,-24.063,19.109C-29.293,19.357,-32.46,13.413,-29.329,9.224C-29.329,9.224,-22.529,0.15,-22.529,0.15C-17.088,-6.116,-18.84,-16.469,-19.153,-24.002Z" fill-opacity="1" fill-rule="nonzero"/>
        </g>
    </g>
    <g id="star-4" visibility="hidden" transform="translate(949,962) translate(-802,-395)" style="animation: 6s linear infinite both star-4_t, 6s linear infinite forwards star-4_v;">
        <g id="Group-1-16" opacity="1" transform="translate(802.691,394.729)" style="animation: 6s linear infinite both Group-1-16_o;">
            <path id="Path-1-24" fill="#facc15" d="M2.668,-43.966C7.439,-49.783,16.849,-47.441,18.287,-40.078C18.287,-40.078,21.465,-24.108,21.465,-24.108C22.944,-12.321,35.672,-4.241,44.022,2.673C49.879,7.431,47.536,16.809,40.126,18.266C40.126,18.266,24.14,21.427,24.14,21.427C17.635,22.705,11.8,26.225,7.613,31.344C7.613,31.344,-2.707,43.955,-2.707,43.955C-7.439,49.782,-16.849,47.44,-18.326,40.068C-18.326,40.068,-21.465,24.107,-21.465,24.107C-22.945,12.32,-35.711,4.231,-44.061,-2.683C-49.879,-7.431,-47.536,-16.809,-40.165,-18.276C-40.165,-18.276,-24.179,-21.438,-24.179,-21.438C-12.342,-22.906,-4.248,-35.631,2.668,-43.966Z" fill-opacity="1" fill-rule="nonzero"/>
        </g>
    </g>
    <g id="star-5" visibility="hidden" transform="translate(923,930) translate(-696,-499)" style="animation: 6s linear infinite both star-5_t, 6s linear infinite forwards star-5_v;">
        <g id="Group-1-17" opacity="1" transform="translate(696.418,500.763)" style="animation: 6s linear infinite both Group-1-17_o;">
            <path id="Path-1-25" fill="#facc15" d="M-19.153,-24.002C-19.4,-29.233,-13.435,-32.398,-9.252,-29.256C-9.252,-29.256,-0.147,-22.466,-0.147,-22.466C6.124,-17.053,16.487,-18.791,24.038,-19.096C29.293,-19.357,32.46,-13.413,29.305,-9.211C29.305,-9.211,22.505,-0.138,22.505,-0.138C19.735,3.551,18.357,8.087,18.58,12.685C18.58,12.685,19.128,24.015,19.128,24.015C19.4,29.233,13.435,32.398,9.227,29.269C9.227,29.269,0.147,22.466,0.147,22.466C-6.124,17.052,-16.511,18.804,-24.063,19.109C-29.293,19.357,-32.46,13.413,-29.329,9.224C-29.329,9.224,-22.529,0.15,-22.529,0.15C-17.088,-6.116,-18.84,-16.469,-19.153,-24.002Z" fill-opacity="1" fill-rule="nonzero"/>
        </g>
    </g>
    <g id="star-6" visibility="hidden" transform="translate(949,962) translate(-802,-395)" style="animation: 6s linear infinite both star-6_t, 6s linear infinite forwards star-6_v;">
        <g id="Group-1-18" opacity="1" transform="translate(802.691,394.729)" style="animation: 6s linear infinite both Group-1-18_o;">
            <path id="Path-1-26" fill="#facc15" d="M2.668,-43.966C7.439,-49.783,16.849,-47.441,18.287,-40.078C18.287,-40.078,21.465,-24.108,21.465,-24.108C22.944,-12.321,35.672,-4.241,44.022,2.673C49.879,7.431,47.536,16.809,40.126,18.266C40.126,18.266,24.14,21.427,24.14,21.427C17.635,22.705,11.8,26.225,7.613,31.344C7.613,31.344,-2.707,43.955,-2.707,43.955C-7.439,49.782,-16.849,47.44,-18.326,40.068C-18.326,40.068,-21.465,24.107,-21.465,24.107C-22.945,12.32,-35.711,4.231,-44.061,-2.683C-49.879,-7.431,-47.536,-16.809,-40.165,-18.276C-40.165,-18.276,-24.179,-21.438,-24.179,-21.438C-12.342,-22.906,-4.248,-35.631,2.668,-43.966Z" fill-opacity="1" fill-rule="nonzero"/>
        </g>
    </g>
</svg>
