<?xml version="1.0" encoding="UTF-8"?>
<svg width="249px" height="243px" viewBox="0 0 249 243" version="1.1" xmlns="http://www.w3.org/2000/svg" xmlns:xlink="http://www.w3.org/1999/xlink">
    <title>Group 5</title>
    <g id="Page-1" stroke="none" stroke-width="1" fill="none" fill-rule="evenodd">
        <g id="MacBook-Pro-13&quot;" transform="translate(-1109, -248)">
            <g id="CTA" transform="translate(78.3783, 171)">
                <g id="Illustration" transform="translate(-0, 66)">
                    <g id="Group-5" transform="translate(1030.6409, 11.9772)">
                        <g id="Group" transform="translate(43.9349, 42.8445)">
                            <g transform="translate(126.6357, 110.4989)" id="Path" stroke="#000000" stroke-linecap="round" stroke-linejoin="round" stroke-width="12.7806656">
                                <path d="M4.90637958,0 C-0.929224736,10.5626991 -3.90207977,31.0988363 9.71957344,44.6046974 C23.5614381,58.3179784 63.3725285,56.75133 63.3725285,56.75133 L71.4102477,65.9909418"></path>
                            </g>
                            <g transform="translate(100.327, 128.8461)" id="Path" stroke="#000000" stroke-linecap="round" stroke-linejoin="round" stroke-width="12.7806656">
                                <path d="M1.25054363,0 C-1.58074687,11.2415277 -0.369583711,31.8892317 12.9689404,43.2156129 C26.5119467,54.7148441 48.7533066,49.1663629 48.7533066,49.1663629 L54.793393,63.3321963"></path>
                            </g>
                            <path d="M170.582399,147.82034 C170.582399,147.82034 156.095629,144.738898 147.900616,140.268372 C140.901037,136.451532 131.683613,127.900177 131.683613,127.900177" id="Path" stroke="#000000" stroke-width="12.7766035" stroke-linecap="round" stroke-linejoin="round"></path>
                            <g>
                                <path d="M65.4786038,0.0189365813 C75.9386492,0.386635419 86.0841069,6.0733965 91.9197112,14.8400282 C98.5103263,6.63594429 109.159124,1.88571529 119.603441,2.46240535 C130.047757,3.03909541 140.083109,8.93327634 145.72996,17.8209029 C151.376812,26.7101009 152.525057,38.364897 148.07364,48.4404737 C159.037026,50.3669641 168.930813,57.7382259 173.948489,67.7556622 C178.997624,77.7730984 179.060541,90.1931481 174.137242,100.273439 C169.213942,110.35373 159.398802,117.860129 148.482604,119.851045 C151.770047,128.645961 151.644211,138.377409 148.089369,147.074901 C144.534526,155.770821 137.582135,162.670674 128.820864,165.888825 C120.169699,169.072405 112.729696,168.368435 105.195318,166.031819 C97.6766686,163.695203 91.589394,158.462566 85.7537896,150.998593 C79.2732803,157.906303 72.7613121,162.570107 65.0539102,164.218467 C57.3465082,165.868397 49.8750472,165.898253 41.5384696,161.947848 C33.1075156,157.953444 26.815759,150.456473 24.047386,141.474565 C21.2947425,132.492657 22.0497533,122.789493 26.1236657,114.327706 C15.4276794,111.360973 6.32036159,102.999753 2.34082549,92.5171933 C-1.67016939,82.0346337 -0.459006233,69.6711531 5.45524504,60.148696 C11.3694963,50.6246676 21.87673,44.1742243 32.9659511,43.2439777 C29.4425674,32.808559 31.6446822,21.3046137 38.0780034,12.9606786 C44.5113246,4.61831477 55.0185583,-0.347190894 65.4786038,0.0189365813 Z" id="Path" fill="#FACC15" fill-rule="nonzero"></path>
                                <path d="M71.8804662,81.5559815 C70.74795,87.5397301 65.9662149,92.2098196 59.6901876,91.9269744 C53.4141603,91.6441291 49.1200364,86.4837745 48.5695077,80.4246005" id="Path" stroke="#000000" stroke-width="6.39033278" stroke-linecap="round" stroke-linejoin="round"></path>
                                <path d="M86.7919295,82.230096 C87.3896464,88.2924128 91.7152291,93.3741993 97.9912564,93.6570445 C104.267284,93.9414612 109.01756,89.1896608 110.102888,83.2027695" id="Path" stroke="#000000" stroke-width="6.39033278" stroke-linecap="round" stroke-linejoin="round"></path>
                                <ellipse id="Oval" fill-opacity="0.3" fill="#FFFFFF" fill-rule="nonzero" transform="translate(37.472, 100.2194) scale(-1, 1) rotate(-2.5875) translate(-37.472, -100.2194)" cx="37.4719522" cy="100.219376" rx="6.28993793" ry="6.28358074"></ellipse>
                                <ellipse id="Oval" fill-opacity="0.3" fill="#FFFFFF" fill-rule="nonzero" transform="translate(119.312, 103.9136) scale(-1, 1) rotate(-2.5875) translate(-119.312, -103.9136)" cx="119.311977" cy="103.913649" rx="6.28993793" ry="6.28358074"></ellipse>
                                <path d="M70.0086686,100.597753 C69.8985628,103.064792 71.471502,108.683985 78.0778465,108.980972 C84.5740853,109.274817 86.7447413,103.825332 86.8548471,101.358292" id="Path" stroke="#000000" stroke-width="6.39033278" stroke-linecap="round" stroke-linejoin="round"></path>
                            </g>
                            <path d="M181.15255,131.809727 C181.15255,131.809727 166.445569,130.14094 157.857321,126.481237 C150.527425,123.357368 140.507802,115.737831 140.507802,115.737831" id="Path" stroke="#000000" stroke-width="12.7766035" stroke-linecap="round" stroke-linejoin="round"></path>
                        </g>
                        <g id="Group-2" transform="translate(27.3794, 66.1145) rotate(-29) translate(-27.3794, -66.1145)translate(7.2249, 45.9997)" fill="#E2E8F0">
                            <path d="M6.85865226,-2.66903941e-13 L11.9522069,-2.66442111e-13 C14.3371097,-2.6688021e-13 15.2019331,0.2483179 16.0738179,0.714607005 C16.9457028,1.18089611 17.6299631,1.86515642 18.0962522,2.73704124 C18.5625413,3.60892606 18.8108592,4.47374945 18.8108592,6.85865226 L18.8108592,11.91522 C18.8108592,14.3001228 18.5625413,15.1649462 18.0962522,16.036831 C17.6299631,16.9087158 16.9457028,17.5929761 16.0738179,18.0592653 C15.2019331,18.5255544 14.3371097,18.7738723 11.9522069,18.7738723 L6.85865226,18.7738723 C4.47374945,18.7738723 3.60892606,18.5255544 2.73704124,18.0592653 C1.86515642,17.5929761 1.18089611,16.9087158 0.714607005,16.036831 C0.2483179,15.1649462 3.38281939e-13,14.3001228 3.38135906e-13,11.91522 L3.38413004e-13,6.85865226 C3.38120937e-13,4.47374945 0.2483179,3.60892606 0.714607005,2.73704124 C1.18089611,1.86515642 1.86515642,1.18089611 2.73704124,0.714607005 C3.60892606,0.2483179 4.47374945,-2.66611874e-13 6.85865226,-2.66903941e-13 Z" id="Rectangle"></path>
                            <path d="M28.356777,1.52471773e-12 L33.4503317,1.52517956e-12 C35.8352345,1.52474146e-12 36.7000579,0.2483179 37.5719427,0.714607005 C38.4438275,1.18089611 39.1280879,1.86515642 39.594377,2.73704124 C40.0606661,3.60892606 40.308984,4.47374945 40.308984,6.85865226 L40.308984,11.91522 C40.308984,14.3001228 40.0606661,15.1649462 39.594377,16.036831 C39.1280879,16.9087158 38.4438275,17.5929761 37.5719427,18.0592653 C36.7000579,18.5255544 35.8352345,18.7738723 33.4503317,18.7738723 L28.356777,18.7738723 C25.9718742,18.7738723 25.1070508,18.5255544 24.235166,18.0592653 C23.3632812,17.5929761 22.6790209,16.9087158 22.2127318,16.036831 C21.7464427,15.1649462 21.4981248,14.3001228 21.4981248,11.91522 L21.4981248,6.85865226 C21.4981248,4.47374945 21.7464427,3.60892606 22.2127318,2.73704124 C22.6790209,1.86515642 23.3632812,1.18089611 24.235166,0.714607005 C25.1070508,0.2483179 25.9718742,1.52500979e-12 28.356777,1.52471773e-12 Z" id="Rectangle-Copy"></path>
                            <path d="M6.85865226,21.455854 L11.9522069,21.455854 C14.3371097,21.455854 15.2019331,21.7041719 16.0738179,22.170461 C16.9457028,22.6367501 17.6299631,23.3210104 18.0962522,24.1928953 C18.5625413,25.0647801 18.8108592,25.9296035 18.8108592,28.3145063 L18.8108592,33.371074 C18.8108592,35.7559768 18.5625413,36.6208002 18.0962522,37.492685 C17.6299631,38.3645698 16.9457028,39.0488302 16.0738179,39.5151193 C15.2019331,39.9814084 14.3371097,40.2297263 11.9522069,40.2297263 L6.85865226,40.2297263 C4.47374945,40.2297263 3.60892606,39.9814084 2.73704124,39.5151193 C1.86515642,39.0488302 1.18089611,38.3645698 0.714607005,37.492685 C0.2483179,36.6208002 1.1969137e-12,35.7559768 1.19676767e-12,33.371074 L1.19704477e-12,28.3145063 C1.1967527e-12,25.9296035 0.2483179,25.0647801 0.714607005,24.1928953 C1.18089611,23.3210104 1.86515642,22.6367501 2.73704124,22.170461 C3.60892606,21.7041719 4.47374945,21.455854 6.85865226,21.455854 Z" id="Rectangle-Copy-2"></path>
                            <ellipse id="Oval" cx="25.7571872" cy="25.7065421" rx="4.25906246" ry="4.25068806"></ellipse>
                            <ellipse id="Oval-Copy" cx="36.0499215" cy="25.7065421" rx="4.25906246" ry="4.25068806"></ellipse>
                            <ellipse id="Oval-Copy-2" cx="25.7571872" cy="35.9790382" rx="4.25906246" ry="4.25068806"></ellipse>
                        </g>
                        <g id="Group-3" transform="translate(61.9137, 8.9336)" fill="#FACC15" fill-rule="nonzero">
                            <path d="M26.0570874,2.78797624 C26.6406302,1.55667927 28.3967481,1.55586864 28.9719552,2.78663073 L30.2302324,5.45387512 C31.0066025,7.46027711 33.5971969,8.32246746 35.3673162,9.17160115 C36.6049671,9.75112304 36.6041577,11.5016053 35.3659703,12.0822701 L32.6952273,13.3381682 C31.6082139,13.8479219 30.7369482,14.7218407 30.2254461,15.8047403 L28.9647017,18.4731474 C28.3883561,19.7044411 26.6322382,19.7052517 26.0498338,18.474493 L24.7987539,15.8072452 C24.0223837,13.8008433 21.4245921,12.9386562 19.6544728,12.0895225 C18.4240191,11.5099973 18.4248285,9.75951506 19.6558187,9.17885363 L22.3265618,7.92295551 C24.3421378,7.14629235 25.207,4.55566275 26.0570874,2.78797624 Z" id="Path" transform="translate(27.5136, 10.6306) rotate(14) translate(-27.5136, -10.6306)"></path>
                            <path d="M7.24631735,24.3678493 C7.651603,23.5103395 8.87457289,23.5113367 9.27624687,24.3695045 L10.1548945,26.2292921 C10.6973505,27.6281432 12.5022235,28.2312646 13.7357012,28.8245577 C14.5981247,29.2294982 14.5991204,30.4493205 13.7373569,30.8528551 L11.8785549,31.7256516 C11.1220067,32.0799064 10.5160308,32.6881214 10.1607824,33.4422846 L9.28516997,35.3006417 C8.88489649,36.1581556 7.66192661,36.1571584 7.25524045,35.2989865 L6.38160502,33.439203 C5.83914896,32.0403519 4.02926386,31.4372264 2.79578615,30.8439333 C1.93837482,30.4389969 1.93737907,29.2191746 2.79413045,28.8156359 L4.65293243,27.9428394 C6.05589923,27.4034149 6.6558864,25.5989048 7.24631735,24.3678493 Z" id="Path-Copy" transform="translate(8.2676, 29.8342) rotate(-28) translate(-8.2676, -29.8342)"></path>
                        </g>
                        <g id="Group" transform="translate(120.9538, 0)" fill-rule="nonzero">
                            <path d="M16.6814959,5.20590817 L43.5842329,5.19571555 C51.5226571,5.19270793 57.9604595,11.625634 57.9634671,19.5640582 C57.9634685,19.567692 57.9634685,19.5713258 57.9634671,19.5749597 C57.9604511,27.521171 51.5195246,33.962093 43.5733133,33.9651036 L16.6705763,33.9752962 C8.73215211,33.9783039 2.29434966,27.5453778 2.29134204,19.6069536 C2.29134066,19.6033198 2.29134066,19.599686 2.29134204,19.5960521 C2.29435809,11.6498408 8.7352846,5.20891875 16.6814959,5.20590817 Z" id="Rectangle" fill="#E2E8F0" transform="translate(30.1274, 19.5855) rotate(11.3325) translate(-30.1274, -19.5855)"></path>
                            <ellipse id="Oval" fill="#FFFFFF" transform="translate(17.3896, 17.0371) rotate(11.3325) translate(-17.3896, -17.0371)" cx="17.3895546" cy="17.0371276" rx="4.29785697" ry="4.5455149"></ellipse>
                            <ellipse id="Oval" fill="#FFFFFF" transform="translate(30.1229, 19.5838) rotate(11.3325) translate(-30.1229, -19.5838)" cx="30.1228747" cy="19.583813" rx="4.29785697" ry="4.5455149"></ellipse>
                            <ellipse id="Oval" fill="#FFFFFF" transform="translate(42.8562, 22.1305) rotate(11.3325) translate(-42.8562, -22.1305)" cx="42.8561948" cy="22.1304983" rx="4.29785697" ry="4.5455149"></ellipse>
                        </g>
                    </g>
                </g>
            </g>
        </g>
    </g>
</svg>